<?xml version="1.0" encoding="UTF-8"?>
<svg version="1.1" xmlns="http://www.w3.org/2000/svg" width="1023" height="360">
<path d="M0 0 C1.559595 -0.00218016 1.559595 -0.00218016 3.15069696 -0.00440437 C6.62755084 -0.00804779 10.10436041 -0.00458561 13.58121395 -0.0011425 C16.10210678 -0.00229498 18.62299944 -0.00388336 21.14389175 -0.00586975 C26.62133021 -0.00917414 32.09875519 -0.00937593 37.57619381 -0.00682259 C45.72179549 -0.00303582 53.86738886 -0.00497613 62.01299048 -0.00803089 C76.56409533 -0.01329475 91.11519578 -0.01284087 105.66630104 -0.00995198 C118.40466214 -0.00743546 131.14302164 -0.00678016 143.88138294 -0.00797462 C144.72667265 -0.00805101 145.57196237 -0.00812739 146.44286692 -0.00820609 C149.87433445 -0.00851744 153.30580198 -0.00883584 156.73726952 -0.00916586 C188.92861027 -0.01222488 221.11994824 -0.00945171 253.31128856 -0.00406896 C281.89133172 0.00067362 310.47137042 0.00025455 339.05141354 -0.00452995 C371.17367891 -0.00988949 403.29594182 -0.01200492 435.41820759 -0.00891769 C438.84555876 -0.00859698 442.27290994 -0.00828414 445.70026112 -0.00797462 C446.96607647 -0.00785601 446.96607647 -0.00785601 448.25746384 -0.007735 C460.9808146 -0.00659925 473.70416357 -0.00792465 486.42751408 -0.01045418 C500.90524395 -0.01331818 515.38296875 -0.01258866 529.86069799 -0.00717343 C537.95558458 -0.0042452 546.05046018 -0.00403376 554.14534647 -0.00781961 C560.20099436 -0.0103384 566.25662812 -0.00759052 572.31227516 -0.00284503 C574.75371596 -0.00173244 577.19515823 -0.0022862 579.63659806 -0.00472082 C591.43460418 -0.01557881 603.16626413 0.07718464 614.93846744 0.90356839 C619.05516032 1.17912052 623.13634502 1.22576141 627.25917721 1.15318489 C628.75787306 1.14056714 630.25657107 1.1282042 631.75527096 1.11607552 C634.02373891 1.09116627 636.29208114 1.06286291 638.56044674 1.02989388 C650.10448269 0.87402607 659.75922425 1.37364405 670.19667721 6.68834114 C670.88761471 7.03912727 671.57855221 7.38991341 672.29042721 7.75132942 C678.48127012 11.02466529 683.48105711 14.98743191 688.25917721 20.12584114 C688.98749752 20.90830208 689.71581783 21.69076302 690.46620846 22.49693489 C698.74638546 32.0982533 701.10953257 40.47975013 702.25917721 53.12584114 C662.98917721 53.45584114 623.71917721 53.78584114 583.25917721 54.12584114 C574.67624259 73.27238759 566.20715692 92.41767678 558.19618893 111.80308723 C546.50104249 140.04936112 531.04446363 159.51795118 502.25917721 172.12584114 C494.03933635 175.28879745 486.49117754 177.24619237 477.64380646 177.26006222 C476.68032234 177.26359056 476.68032234 177.26359056 475.6973739 177.26719019 C473.54832583 177.27383902 471.39933879 177.27342322 469.25028133 177.27301216 C467.69249313 177.27631336 466.13470577 177.28003947 464.5769195 177.28415364 C460.29823702 177.29415275 456.01956858 177.29788707 451.74087608 177.30054295 C447.12510356 177.30445223 442.50934208 177.31403015 437.89357662 177.32275581 C426.74722611 177.34250295 415.60087471 177.35258437 404.45451108 177.3614836 C399.20201045 177.36586951 393.94951083 177.37123555 388.69701099 177.37647247 C371.23040285 177.39348325 353.76379533 177.40797655 336.29718018 177.41522121 C331.76620196 177.41713102 327.23522376 177.41905137 322.70424557 177.42100716 C321.57813023 177.4214909 320.4520149 177.42197464 319.29177486 177.42247304 C301.05695395 177.43077009 282.82219871 177.4561022 264.58740646 177.48858783 C245.8549272 177.52168729 227.12248128 177.5396726 208.38997263 177.54286546 C197.8769374 177.54502791 187.36399793 177.55373781 176.85099125 177.57932663 C167.89605157 177.60107309 158.94123091 177.60906466 149.98626781 177.59935985 C145.4213491 177.59482654 140.85667575 177.59664469 136.29179096 177.61612129 C132.10359908 177.63383551 127.91583006 177.63268897 123.72763317 177.617224 C122.22149388 177.61486038 120.71532467 177.61910599 119.20923091 177.63105265 C106.14817942 177.72814491 93.78245419 175.66226948 82.13417721 169.43834114 C81.475144 169.09512825 80.8161108 168.75191536 80.1371069 168.39830208 C60.57054152 157.95965732 46.04613729 143.6290162 37.07167721 123.25084114 C36.3773962 121.70541634 36.3773962 121.70541634 35.66908932 120.12877083 C30.7128269 109.03511558 25.94622719 97.85819764 21.19716549 86.67466927 C18.43801393 80.18924087 15.65733197 73.71299037 12.88027096 67.23521614 C12.60346052 66.5895192 12.32665009 65.94382225 12.04145145 65.27855873 C10.44761338 61.56087754 8.85350299 57.8433132 7.25917721 54.12584114 C6.65195859 54.1216092 6.04473997 54.11737726 5.41912079 54.11301708 C-9.33559008 54.00984603 -24.09025384 53.90122887 -38.84487915 53.78650188 C-45.98001731 53.73115368 -53.11516046 53.67766913 -60.25034428 53.62852669 C-67.12975819 53.58114065 -74.00911735 53.52862096 -80.88846874 53.47290039 C-83.5196241 53.45244155 -86.15079365 53.43373446 -88.78197384 53.41676712 C-92.45312377 53.39280098 -96.12417491 53.36273612 -99.79526615 53.33116341 C-100.89505802 53.32540794 -101.99484989 53.31965248 -103.12796879 53.31372261 C-104.61933605 53.29903938 -104.61933605 53.29903938 -106.14083195 53.28405952 C-107.01008273 53.27760697 -107.87933352 53.27115442 -108.77492523 53.26450634 C-110.74082279 53.12584114 -110.74082279 53.12584114 -111.74082279 52.12584114 C-112.34622482 40.04412247 -106.03842975 28.47044837 -98.27988529 19.66099739 C-90.16375945 11.5573579 -81.65636404 6.54467104 -70.74082279 3.12584114 C-69.72262455 2.77908333 -68.70442631 2.43232552 -67.65537357 2.07505989 C-63.11330772 0.79046488 -58.69090364 0.89340732 -54.00254154 0.96568489 C-53.08173298 0.97088646 -52.16092442 0.97608803 -51.21221256 0.98144722 C-48.28408378 0.99915796 -45.35631524 1.03027966 -42.42832279 1.06334114 C-39.51107665 1.09114286 -36.59388753 1.11587868 -33.67656803 1.13452339 C-31.86775425 1.146583 -30.05896465 1.1639816 -28.25026798 1.1878376 C-24.15552477 1.2197672 -20.17031684 1.10584115 -16.10140949 0.62859452 C-10.72159726 0.07078727 -5.40495159 -0.01330966 0 0 Z " fill="#10BF04" transform="translate(207.74082279205322,79.87415885925293)"/>
<path d="M0 0 C-0.99 0.33 -1.98 0.66 -3 1 C-3 1.99 -3 2.98 -3 4 C-1.5459375 3.814375 -1.5459375 3.814375 -0.0625 3.625 C5.23423899 3.65716643 9.25545326 6.44553177 13 10 C19.09357137 17.42153163 22.41384957 26.41738837 26.0625 35.1875 C26.72363875 36.75646585 27.38584721 38.32498133 28.04907227 39.89306641 C29.39565616 43.07791108 30.73859051 46.26425509 32.07910156 49.45166016 C34.81629512 55.94742124 37.6246097 62.41170315 40.4375 68.875 C41.49006769 71.29406196 42.54236536 73.71323658 43.59375 76.1328125 C43.86093842 76.74759964 44.12812683 77.36238678 44.40341187 77.99580383 C46.31292703 82.39714196 48.20116048 86.80728769 50.08164978 91.22109985 C51.51183634 94.57641805 52.94744909 97.92940356 54.3833313 101.2822876 C55.07610926 102.90401738 55.76635287 104.52683258 56.4538269 106.15081787 C65.74876768 128.10142674 76.61589048 142.83757622 98.625 153.3125 C108.91254799 157.43099275 118.30053515 158.43699813 129.34442139 158.38768005 C130.87765429 158.39185956 132.41088411 158.39734044 133.94410825 158.40399987 C138.13174403 158.4183927 142.31918198 158.41422912 146.50682831 158.40683305 C151.03322675 158.40208827 155.55958319 158.41462289 160.08596802 158.42485046 C168.94420115 158.44201902 177.80236329 158.44288239 186.66060874 158.43763756 C193.86417259 158.43359048 201.06771552 158.43504581 208.27127838 158.44038582 C209.8111981 158.44150845 209.8111981 158.44150845 211.38222732 158.44265376 C213.46804848 158.4441853 215.55386963 158.44572365 217.63969079 158.44726873 C237.18709801 158.46098712 256.73446517 158.45556106 276.28187147 158.44408352 C294.14455767 158.43415509 312.00714022 158.44708625 329.86981043 158.47101771 C348.23181338 158.49543187 366.5937681 158.50501068 384.95578694 158.49836498 C395.25634986 158.4948775 405.55683312 158.49707357 415.85738373 158.51461601 C424.62739754 158.5293671 433.39727561 158.52993566 442.16728684 158.5125451 C446.63704471 158.50405604 451.10656041 158.50183398 455.57630539 158.51719666 C459.6773464 158.53111687 463.77793946 158.52618745 467.87895504 158.50695742 C469.35331009 158.50321938 470.82770167 158.50605517 472.30202398 158.51656907 C492.32887634 158.64909951 510.00490636 152.55828153 525 139 C525.71929688 138.36191406 526.43859375 137.72382813 527.1796875 137.06640625 C536.06109169 128.73799516 540.51700218 118.0464283 545.1875 107 C545.7550162 105.67283939 546.32314218 104.34593937 546.8918457 103.01928711 C548.60461236 99.0170955 550.30359253 95.00914752 552 91 C552.49757813 89.8258252 552.99515625 88.65165039 553.5078125 87.44189453 C555.357022 83.07591596 557.20426607 78.70912733 559.0456543 74.33984375 C562.37864477 66.43726449 565.77175872 58.56265286 569.22680664 50.71264648 C571.49555219 45.53918854 573.68269868 40.3434534 575.7890625 35.1015625 C576.26214844 33.93947266 576.73523438 32.77738281 577.22265625 31.58007812 C578.12862486 29.34796327 579.02030736 27.10997232 579.89453125 24.86523438 C583.22906589 16.70331959 587.55373714 10.0272428 594.9375 5 C598.93071358 3.69609352 602.82105556 3.26930975 607 3 C607 2.34 607 1.68 607 1 C614.24077331 0.94907492 621.4815 0.91417214 628.72241211 0.89013672 C631.18304165 0.88011115 633.64365937 0.86648726 636.10424805 0.84912109 C639.65155972 0.82472122 643.19871314 0.81348213 646.74609375 0.8046875 C647.8370787 0.79436493 648.92806366 0.78404236 650.05210876 0.77340698 C659.55845567 0.7720267 667.45906859 2.24532655 675.9375 6.5625 C676.6284375 6.91328613 677.319375 7.26407227 678.03125 7.62548828 C684.22209291 10.89882415 689.2218799 14.86159077 694 20 C694.72832031 20.78246094 695.45664062 21.56492187 696.20703125 22.37109375 C704.48720825 31.97241216 706.85035536 40.35390899 708 53 C668.73 53.33 629.46 53.66 589 54 C580.41706539 73.14654645 571.94797971 92.29183564 563.93701172 111.67724609 C552.24186529 139.92351998 536.78528642 159.39211004 508 172 C499.78015914 175.16295631 492.23200033 177.12035123 483.38462925 177.13422108 C482.42114513 177.13774942 482.42114513 177.13774942 481.43819669 177.14134905 C479.28914862 177.14799788 477.14016158 177.14758208 474.99110413 177.14717102 C473.43331592 177.15047222 471.87552856 177.15419832 470.31774229 177.1583125 C466.03905981 177.16831161 461.76039137 177.17204593 457.48169887 177.17470181 C452.86592635 177.17861109 448.25016487 177.18818901 443.63439941 177.19691467 C432.4880489 177.21666181 421.3416975 177.22674323 410.19533387 177.23564246 C404.94283324 177.24002837 399.69033362 177.2453944 394.43783379 177.25063133 C376.97122564 177.26764211 359.50461812 177.28213541 342.03800297 177.28938007 C337.50702476 177.29128988 332.97604655 177.29321023 328.44506836 177.29516602 C327.31895303 177.29564976 326.19283769 177.2961335 325.03259765 177.2966319 C306.79777674 177.30492894 288.5630215 177.33026106 270.32822926 177.36274669 C251.59574999 177.39584615 232.86330407 177.41383146 214.13079542 177.41702431 C203.61776019 177.41918677 193.10482072 177.42789666 182.59181404 177.45348549 C173.63687436 177.47523195 164.6820537 177.48322352 155.7270906 177.47351871 C151.16217189 177.4689854 146.59749854 177.47080355 142.03261375 177.49028015 C137.84442187 177.50799437 133.65665286 177.50684783 129.46845596 177.49138286 C127.96231668 177.48901924 126.45614746 177.49326485 124.9500537 177.50521151 C111.88900221 177.60230377 99.52327698 175.53642834 87.875 169.3125 C87.2159668 168.96928711 86.55693359 168.62607422 85.87792969 168.27246094 C66.31136431 157.83381618 51.78696009 143.50317506 42.8125 123.125 C42.11821899 121.5795752 42.11821899 121.5795752 41.40991211 120.00292969 C36.45364969 108.90927444 31.68704998 97.7323565 26.93798828 86.54882812 C24.17883673 80.06339973 21.39815476 73.58714923 18.62109375 67.109375 C18.34428331 66.46367805 18.06747288 65.81798111 17.78227425 65.15271759 C16.18843617 61.4350364 14.59432578 57.71747206 13 54 C12.39278138 53.99576806 11.78556276 53.99153612 11.15994358 53.98717594 C-3.59476729 53.88400489 -18.34943105 53.77538773 -33.10405636 53.66066074 C-40.23919451 53.60531254 -47.37433767 53.55182799 -54.50952148 53.50268555 C-61.3889354 53.4552995 -68.26829456 53.40277982 -75.14764595 53.34705925 C-77.77880131 53.32660041 -80.40997086 53.30789332 -83.04115105 53.29092598 C-86.71230098 53.26695984 -90.38335212 53.23689498 -94.05444336 53.20532227 C-95.15423523 53.1995668 -96.2540271 53.19381134 -97.387146 53.18788147 C-98.87851326 53.17319824 -98.87851326 53.17319824 -100.40000916 53.15821838 C-101.26925994 53.15176583 -102.13851072 53.14531328 -103.03410244 53.1386652 C-105 53 -105 53 -106 52 C-106.60540202 39.91828133 -100.29760695 28.34460723 -92.5390625 19.53515625 C-84.42293666 11.43151676 -75.91554125 6.4188299 -65 3 C-63.98180176 2.65324219 -62.96360352 2.30648437 -61.91455078 1.94921875 C-57.37248493 0.66462374 -52.95008085 0.76756618 -48.26171875 0.83984375 C-47.34091019 0.84504532 -46.42010162 0.85024689 -45.47138977 0.85560608 C-42.54326099 0.87331682 -39.61549245 0.90443852 -36.6875 0.9375 C-33.77025386 0.96530172 -30.85306474 0.99003754 -27.93574524 1.00868225 C-26.12693146 1.02074186 -24.31814186 1.03814046 -22.50944519 1.06199646 C-17.38735289 1.10193702 -12.40699399 0.82260013 -7.31941223 0.2177887 C-4.86676064 -0.01251094 -2.46198305 -0.03473238 0 0 Z " fill="#FCFAFA" transform="translate(202,80)"/>
<path d="M0 0 C0.6909375 0.35078613 1.381875 0.70157227 2.09375 1.06298828 C8.28459291 4.33632415 13.2843799 8.29909077 18.0625 13.4375 C19.15498047 14.61119141 19.15498047 14.61119141 20.26953125 15.80859375 C28.54970825 25.40991216 30.91285536 33.79140899 32.0625 46.4375 C-7.2075 46.7675 -46.4775 47.0975 -86.9375 47.4375 C-85.19468458 40.46623831 -83.07826571 34.5284028 -80.25 28 C-79.84072266 27.01451172 -79.43144531 26.02902344 -79.00976562 25.01367188 C-72.82359133 10.67429091 -64.04923452 3.07354542 -49.75 -3 C-34.45131465 -8.94088879 -14.52839216 -7.39778219 0 0 Z " fill="#13C807" transform="translate(877.9375,86.5625)"/>
<path d="M0 0 C1.11310547 0.00902344 2.22621094 0.01804687 3.37304688 0.02734375 C6.10309023 0.0507776 8.8326801 0.083586 11.5625 0.125 C11.5625 0.785 11.5625 1.445 11.5625 2.125 C13.233125 2.24875 13.233125 2.24875 14.9375 2.375 C26.7859371 3.90046016 36.79907401 10.47436169 44.52490234 19.33178711 C48.35873113 24.58733888 50.64267519 30.57051629 53.0625 36.5625 C53.60260299 37.85417058 54.14426138 39.14519192 54.6875 40.43554688 C58.5625 49.76223693 58.5625 49.76223693 58.5625 52.125 C43.19448551 52.14832953 27.82647184 52.16597944 12.45844364 52.17681217 C5.32328259 52.18197501 -1.81186748 52.18901748 -8.94702148 52.20043945 C-15.82639737 52.21144675 -22.70576181 52.21727617 -29.58514595 52.21987724 C-32.21631615 52.22173206 -34.84748569 52.22535373 -37.47865105 52.23073006 C-41.1497625 52.23793635 -44.82082603 52.23899112 -48.49194336 52.23852539 C-50.14163116 52.2439183 -50.14163116 52.2439183 -51.824646 52.24942017 C-52.81889084 52.2480455 -53.81313568 52.24667084 -54.83750916 52.24525452 C-55.70675994 52.24617631 -56.57601072 52.2470981 -57.47160244 52.24804783 C-59.4375 52.125 -59.4375 52.125 -60.4375 51.125 C-61.04290202 39.04328133 -54.73510695 27.46960723 -46.9765625 18.66015625 C-38.86043666 10.55651676 -30.35304125 5.5438299 -19.4375 2.125 C-18.41140625 1.75503906 -17.3853125 1.38507813 -16.328125 1.00390625 C-10.86125123 -0.2310803 -5.58349797 -0.08615486 0 0 Z " fill="#13C708" transform="translate(156.4375,80.875)"/>
<path d="M0 0 C8.971875 -0.12375 8.971875 -0.12375 18.125 -0.25 C20.00203613 -0.28641602 21.87907227 -0.32283203 23.81298828 -0.36035156 C25.31541808 -0.37204362 26.81786064 -0.38223423 28.3203125 -0.390625 C29.08851318 -0.41108887 29.85671387 -0.43155273 30.64819336 -0.45263672 C35.91121708 -0.45602675 38.79180136 0.57043191 43 4 C45.78149582 6.9226288 46.43131601 8.92409258 46.4375 12.9375 C46.33611897 16.56053769 46.10063946 17.83897686 44.125 21 C43.073125 21.99 43.073125 21.99 42 23 C41.34 23.66 40.68 24.32 40 25 C40.7425 25.391875 41.485 25.78375 42.25 26.1875 C45.36045733 28.23757415 47.07874239 29.79790398 49 33 C49.74910214 39.74191923 48.42276274 43.76964968 44.3125 49.25 C39.01138821 53.26165216 32.18155408 53.28978468 25.78125 53.1953125 C25.12092773 53.19329834 24.46060547 53.19128418 23.78027344 53.18920898 C21.35344323 53.17887848 18.92671337 53.15095784 16.5 53.125 C11.055 53.08375 5.61 53.0425 0 53 C0 35.51 0 18.02 0 0 Z " fill="#FCFEFC" transform="translate(398,103)"/>
<path d="M0 0 C0.66768906 -0.00095673 1.33537811 -0.00191345 2.02330017 -0.00289917 C3.44318739 -0.00358145 4.86307771 -0.00172388 6.28295898 0.00244141 C8.43155179 0.00773055 10.57992988 0.00252886 12.72851562 -0.00390625 C32.08276525 -0.01888293 32.08276525 -0.01888293 36.33984375 4.0078125 C36.90574219 4.52085937 37.47164062 5.03390625 38.0546875 5.5625 C41.15093269 9.17029874 40.8523494 13.81126903 40.81640625 18.328125 C40.2472294 22.18349269 38.79182368 24.18594886 36.0703125 26.89453125 C33.90633424 28.50104439 32.08907781 29.05379091 29.40234375 29.1328125 C29.40234375 29.7928125 29.40234375 30.4528125 29.40234375 31.1328125 C29.97984375 31.3596875 30.55734375 31.5865625 31.15234375 31.8203125 C36.04606451 34.67498294 38.57023419 39.9140013 41.21484375 44.7578125 C41.84003906 45.88445312 42.46523438 47.01109375 43.109375 48.171875 C44.40234375 51.1328125 44.40234375 51.1328125 43.40234375 54.1328125 C37.75221753 55.26548728 31.89110791 56.375758 26.40234375 54.1328125 C21.68095561 49.46244622 18.99071885 43.12190063 16.36938477 37.10400391 C15.45347499 34.96835078 15.45347499 34.96835078 13.40234375 33.1328125 C11.33360341 32.490289 11.33360341 32.490289 9.40234375 32.1328125 C9.41019897 33.07918579 9.41019897 33.07918579 9.41821289 34.04467773 C9.43892201 36.88654597 9.45198441 39.72839838 9.46484375 42.5703125 C9.47322266 43.56353516 9.48160156 44.55675781 9.49023438 45.58007812 C9.49506836 46.99643555 9.49506836 46.99643555 9.5 48.44140625 C9.50785522 49.75322876 9.50785522 49.75322876 9.51586914 51.09155273 C9.40234375 53.1328125 9.40234375 53.1328125 8.40234375 54.1328125 C5.89098271 54.23256282 3.4133096 54.27163433 0.90234375 54.2578125 C0.19980469 54.26167969 -0.50273438 54.26554687 -1.2265625 54.26953125 C-6.47104247 54.25942628 -6.47104247 54.25942628 -7.59765625 53.1328125 C-7.69627223 51.51153827 -7.72564392 49.88598882 -7.72705078 48.26171875 C-7.73020294 47.22394287 -7.7333551 46.18616699 -7.73660278 45.11694336 C-7.73457855 43.98780518 -7.73255432 42.85866699 -7.73046875 41.6953125 C-7.73190384 39.96970093 -7.73190384 39.96970093 -7.73336792 38.20922852 C-7.73404994 35.77132106 -7.73219415 33.3334118 -7.72802734 30.89550781 C-7.72267942 27.14904732 -7.72797164 23.40270673 -7.734375 19.65625 C-7.73371422 17.29427057 -7.73243307 14.93229121 -7.73046875 12.5703125 C-7.73249298 11.44117432 -7.73451721 10.31203613 -7.73660278 9.14868164 C-7.73345062 8.11090576 -7.73029846 7.07312988 -7.72705078 6.00390625 C-7.72625519 5.08536865 -7.72545959 4.16683105 -7.72463989 3.22045898 C-7.44809493 -1.32601731 -3.77016898 0.00342232 0 0 Z " fill="#FAFEFA" transform="translate(615.59765625,163.8671875)"/>
<path d="M0 0 C0.76166977 0.00222061 1.52333954 0.00444122 2.30809021 0.00672913 C3.16890701 0.00680466 4.02972382 0.00688019 4.91662598 0.00695801 C5.8520372 0.01211929 6.78744843 0.01728058 7.75120544 0.02259827 C8.70422043 0.02401321 9.65723541 0.02542816 10.63912964 0.02688599 C13.69605085 0.032503 16.75289996 0.04505836 19.80979919 0.05775452 C21.87685543 0.06276733 23.94391281 0.06733061 26.01097107 0.07142639 C31.08977507 0.08247795 36.16852489 0.09975397 41.24729919 0.12025452 C41.24729919 4.08025452 41.24729919 8.04025452 41.24729919 12.12025452 C32.33729919 12.12025452 23.42729919 12.12025452 14.24729919 12.12025452 C14.24729919 14.76025452 14.24729919 17.40025452 14.24729919 20.12025452 C22.49729919 20.12025452 30.74729919 20.12025452 39.24729919 20.12025452 C39.24729919 23.75025452 39.24729919 27.38025452 39.24729919 31.12025452 C30.99729919 31.12025452 22.74729919 31.12025452 14.24729919 31.12025452 C14.24729919 34.42025452 14.24729919 37.72025452 14.24729919 41.12025452 C23.48729919 41.12025452 32.72729919 41.12025452 42.24729919 41.12025452 C42.24729919 45.41025452 42.24729919 49.70025452 42.24729919 54.12025452 C35.99933666 54.14489907 29.75140216 54.16308795 23.50340271 54.17518616 C21.37611905 54.1802275 19.24883888 54.18706043 17.12156677 54.19569397 C14.07102094 54.20776831 11.02052074 54.21348466 7.96995544 54.21791077 C6.53402794 54.22565269 6.53402794 54.22565269 5.0690918 54.23355103 C4.18825424 54.23362656 3.30741669 54.23370209 2.39988708 54.23377991 C1.23073509 54.23711082 1.23073509 54.23711082 0.03796387 54.24050903 C-1.75270081 54.12025452 -1.75270081 54.12025452 -2.75270081 53.12025452 C-2.85131679 51.49898028 -2.88068847 49.87343084 -2.88209534 48.24916077 C-2.8852475 47.21138489 -2.88839966 46.17360901 -2.89164734 45.10438538 C-2.88962311 43.97524719 -2.88759888 42.84610901 -2.88551331 41.68275452 C-2.88694839 39.95714294 -2.88694839 39.95714294 -2.88841248 38.19667053 C-2.88909449 35.75876308 -2.88723871 33.32085382 -2.8830719 30.88294983 C-2.87772398 27.13648934 -2.8830162 23.39014875 -2.88941956 19.64369202 C-2.88875878 17.28171258 -2.88747762 14.91973323 -2.88551331 12.55775452 C-2.88753754 11.42861633 -2.88956177 10.29947815 -2.89164734 9.13612366 C-2.88849518 8.09834778 -2.88534302 7.0605719 -2.88209534 5.99134827 C-2.88129974 5.07281067 -2.88050415 4.15427307 -2.87968445 3.207901 C-2.72182853 0.61270577 -2.60526887 0.17875005 0 0 Z " fill="#F8FEF8" transform="translate(556.7527008056641,163.87974548339844)"/>
<path d="M0 0 C7.074375 -0.020625 14.14875 -0.04125 21.4375 -0.0625 C24.79119751 -0.07615601 24.79119751 -0.07615601 28.21264648 -0.09008789 C29.97379496 -0.09300696 31.73494411 -0.09555554 33.49609375 -0.09765625 C34.41942505 -0.10277222 35.34275635 -0.10788818 36.29406738 -0.11315918 C37.16696411 -0.11328003 38.03986084 -0.11340088 38.93920898 -0.11352539 C40.08171364 -0.11685631 40.08171364 -0.11685631 41.24729919 -0.12025452 C43 0 43 0 44 1 C44 4.63 44 8.26 44 12 C34.76 12 25.52 12 16 12 C16 14.64 16 17.28 16 20 C24.58 20 33.16 20 42 20 C42 23.63 42 27.26 42 31 C33.42 31 24.84 31 16 31 C16 34.3 16 37.6 16 41 C16.84296631 40.99476318 17.68593262 40.98952637 18.55444336 40.98413086 C21.67227936 40.96712174 24.79009177 40.95456594 27.90795898 40.94506836 C29.25920386 40.94002943 30.61044326 40.93319823 31.96166992 40.92456055 C33.90020434 40.91247581 35.838778 40.90730172 37.77734375 40.90234375 C39.52905884 40.89448853 39.52905884 40.89448853 41.31616211 40.88647461 C44 41 44 41 45 42 C45.09851171 43.83115883 45.12972629 45.66619933 45.125 47.5 C45.12886719 49.00046875 45.12886719 49.00046875 45.1328125 50.53125 C45 53 45 53 44 54 C42.61839885 54.0927833 41.23211962 54.11747043 39.84741211 54.11352539 C38.95421265 54.11340454 38.06101318 54.11328369 37.14074707 54.11315918 C36.19582397 54.10804321 35.25090088 54.10292725 34.27734375 54.09765625 C33.41338989 54.09664917 32.54943604 54.09564209 31.65930176 54.09460449 C28.41868775 54.0893555 25.1780926 54.07539436 21.9375 54.0625 C14.698125 54.041875 7.45875 54.02125 0 54 C0 36.18 0 18.36 0 0 Z " fill="#F8FEF8" transform="translate(402,164)"/>
<path d="M0 0 C0.76166977 0.00222061 1.52333954 0.00444122 2.30809021 0.00672913 C3.16890701 0.00680466 4.02972382 0.00688019 4.91662598 0.00695801 C5.8520372 0.01211929 6.78744843 0.01728058 7.75120544 0.02259827 C8.70422043 0.02401321 9.65723541 0.02542816 10.63912964 0.02688599 C13.69605085 0.032503 16.75289996 0.04505836 19.80979919 0.05775452 C21.87685543 0.06276733 23.94391281 0.06733061 26.01097107 0.07142639 C31.08977507 0.08247795 36.16852489 0.09975397 41.24729919 0.12025452 C41.24729919 3.75025452 41.24729919 7.38025452 41.24729919 11.12025452 C32.33729919 11.12025452 23.42729919 11.12025452 14.24729919 11.12025452 C14.24729919 14.09025452 14.24729919 17.06025452 14.24729919 20.12025452 C22.49729919 20.12025452 30.74729919 20.12025452 39.24729919 20.12025452 C39.24729919 23.42025452 39.24729919 26.72025452 39.24729919 30.12025452 C30.99729919 30.12025452 22.74729919 30.12025452 14.24729919 30.12025452 C14.24729919 33.75025452 14.24729919 37.38025452 14.24729919 41.12025452 C23.48729919 41.12025452 32.72729919 41.12025452 42.24729919 41.12025452 C42.24729919 45.08025452 42.24729919 49.04025452 42.24729919 53.12025452 C35.99933666 53.14489907 29.75140216 53.16308795 23.50340271 53.17518616 C21.37611905 53.1802275 19.24883888 53.18706043 17.12156677 53.19569397 C14.07102094 53.20776831 11.02052074 53.21348466 7.96995544 53.21791077 C6.53402794 53.22565269 6.53402794 53.22565269 5.0690918 53.23355103 C4.18825424 53.23362656 3.30741669 53.23370209 2.39988708 53.23377991 C1.23073509 53.23711082 1.23073509 53.23711082 0.03796387 53.24050903 C-1.75270081 53.12025452 -1.75270081 53.12025452 -2.75270081 52.12025452 C-2.85124503 50.52962142 -2.88068774 48.93463974 -2.88209534 47.34095764 C-2.8852475 46.32320251 -2.88839966 45.30544739 -2.89164734 44.2568512 C-2.88962311 43.14958679 -2.88759888 42.04232239 -2.88551331 40.90150452 C-2.88647003 39.77329285 -2.88742676 38.64508118 -2.88841248 37.48268127 C-2.88909448 35.09185226 -2.88723878 32.7010214 -2.8830719 30.31019592 C-2.87772396 26.63616301 -2.88301623 22.96225235 -2.88941956 19.28822327 C-2.88875878 16.97181674 -2.88747762 14.6554103 -2.88551331 12.33900452 C-2.88854965 10.67810791 -2.88854965 10.67810791 -2.89164734 8.98365784 C-2.88849518 7.96590271 -2.88534302 6.94814758 -2.88209534 5.89955139 C-2.88129974 4.99877869 -2.88050415 4.09800598 -2.87968445 3.16993713 C-2.72033142 0.5977702 -2.58227379 0.17717233 0 0 Z " fill="#FEFEFE" transform="translate(457.75270080566406,102.87974548339844)"/>
<path d="M0 0 C1.10794922 -0.0309375 1.10794922 -0.0309375 2.23828125 -0.0625 C8.89817035 -0.10948334 13.53455332 1.27536274 18.625 5.8125 C22.19108226 9.90300612 21.75 10.15238599 21.75 16.25 C16.8 16.25 11.85 16.25 6.75 16.25 C6.09 14.93 5.43 13.61 4.75 12.25 C2.46294169 11.10647084 1.15735238 11.14665561 -1.375 11.1875 C-3.293125 11.2184375 -3.293125 11.2184375 -5.25 11.25 C-5.25 12.9 -5.25 14.55 -5.25 16.25 C-4.67556152 16.41081055 -4.10112305 16.57162109 -3.50927734 16.73730469 C-0.87796254 17.48062594 1.74841205 18.24015258 4.375 19 C5.27863281 19.25265625 6.18226563 19.5053125 7.11328125 19.765625 C13.30050048 21.57211237 18.19809374 23.44290312 22.625 28.3125 C24.65527866 33.61378317 24.87451417 39.24129985 22.87109375 44.6015625 C20.05727764 49.56056515 16.93492837 51.97590861 11.75 54.25 C2.59602436 56.13650397 -6.80127784 56.54847268 -15.25 52.25 C-20.52726719 48.76501223 -22.81209631 45.27910494 -24.25 39.25 C-24.25 38.26 -24.25 37.27 -24.25 36.25 C-19.3 35.92 -14.35 35.59 -9.25 35.25 C-6.25 40.25 -6.25 40.25 -6.25 42.25 C-2.32703567 43.55765478 0.61002433 43.4471417 4.75 43.25 C7.03728734 41.41116119 7.03728734 41.41116119 6.875 38.625 C6.83375 37.84125 6.7925 37.0575 6.75 36.25 C1.25482402 33.69410419 -4.33770536 31.97321938 -10.1640625 30.3125 C-15.62126131 28.43356573 -18.81599256 26.39321445 -21.51953125 21.140625 C-22.96671886 17.39496294 -22.93257729 14.16848646 -21.58984375 10.39453125 C-19.16570739 5.47279985 -16.14692496 3.56490998 -11.25 1.25 C-7.48025424 -0.00658192 -3.92827808 0.02686002 0 0 Z " fill="#FBFDFB" transform="translate(530.25,101.75)"/>
<path d="M0 0 C1.21139648 -0.0299707 1.21139648 -0.0299707 2.44726562 -0.06054688 C8.237332 -0.05588123 12.76371452 1.10686201 17.5625 4.4375 C20.49585989 7.97257474 22.02502091 10.86892773 22.5625 15.4375 C17.25333761 16.61516875 11.97411444 17.24146189 6.5625 16.4375 C4.8125 14 4.8125 14 3.5625 11.4375 C0.10274142 10.35982871 0.10274142 10.35982871 -3.4375 10.4375 C-4.4275 11.0975 -5.4175 11.7575 -6.4375 12.4375 C-6.4375 13.7575 -6.4375 15.0775 -6.4375 16.4375 C-4.7359375 16.80101562 -4.7359375 16.80101562 -3 17.171875 C17.87176961 21.76222983 17.87176961 21.76222983 22.5625 28.4375 C24.84838341 34.07828692 24.91882757 38.70729353 22.67578125 44.359375 C20.32614831 48.74535648 17.5118328 51.59084949 12.9453125 53.57421875 C4.14129816 55.82097068 -8.67127907 56.39423513 -16.76953125 51.8359375 C-20.99914626 48.28979658 -23.26019794 44.42328308 -23.75 38.9375 C-23.646875 38.1125 -23.54375 37.2875 -23.4375 36.4375 C-20.55334117 34.99542059 -18.02028472 35.34355113 -14.8125 35.375 C-13.62398438 35.38402344 -12.43546875 35.39304688 -11.2109375 35.40234375 C-10.29570312 35.41394531 -9.38046875 35.42554688 -8.4375 35.4375 C-8.004375 36.38625 -7.57125 37.335 -7.125 38.3125 C-5.64447799 41.63791937 -5.64447799 41.63791937 -2.4375 43.4375 C1.63740752 43.77707563 3.09251271 43.75082486 6.5625 41.4375 C6.97916667 38.9375 6.97916667 38.9375 6.5625 36.4375 C3.7027657 33.5777657 0.24530177 33.17961415 -3.5625 32.1875 C-11.12234851 30.0874103 -17.43714039 27.87803222 -22 21.125 C-22.93115094 15.40507279 -22.42186769 11.00090751 -19.3125 6.0625 C-13.37654398 0.64271407 -7.73639963 -0.06759364 0 0 Z " fill="#FCFEFC" transform="translate(369.4375,163.5625)"/>
<path d="M0 0 C16.5 0 33 0 50 0 C50 4.29 50 8.58 50 13 C44.39 13 38.78 13 33 13 C33 26.2 33 39.4 33 53 C27.72 53 22.44 53 17 53 C17 39.8 17 26.6 17 13 C11.39 13 5.78 13 0 13 C0 8.71 0 4.42 0 0 Z " fill="#FEFEFE" transform="translate(559,103)"/>
<path d="M0 0 C0.70253906 0.00386719 1.40507812 0.00773438 2.12890625 0.01171875 C2.83144531 0.00785156 3.53398437 0.00398437 4.2578125 0 C9.50229247 0.01010497 9.50229247 0.01010497 10.62890625 1.13671875 C10.71755833 4.02105695 10.74411921 6.88134033 10.7265625 9.765625 C10.72514755 10.6298558 10.7237326 11.49408661 10.72227478 12.38450623 C10.71665864 15.15611167 10.70410344 17.92763755 10.69140625 20.69921875 C10.68639333 22.57356655 10.68183006 24.4479156 10.67773438 26.32226562 C10.66753306 30.92713896 10.64796092 35.53183935 10.62890625 40.13671875 C18.87890625 40.13671875 27.12890625 40.13671875 35.62890625 40.13671875 C35.62890625 44.75671875 35.62890625 49.37671875 35.62890625 54.13671875 C29.80819003 54.16136513 23.98750391 54.17955305 18.16674805 54.19165039 C16.18497184 54.19669142 14.20319936 54.20352413 12.22143555 54.2121582 C9.37938516 54.2242339 6.53738378 54.2299492 3.6953125 54.234375 C2.357817 54.24211693 2.357817 54.24211693 0.99330139 54.25001526 C-1.12849976 54.25021052 -3.25020155 54.19881905 -5.37109375 54.13671875 C-7.02517831 52.48263419 -6.4985173 50.54117983 -6.50048828 48.265625 C-6.50364044 47.22784912 -6.5067926 46.19007324 -6.51004028 45.12084961 C-6.50801605 43.99171143 -6.50599182 42.86257324 -6.50390625 41.69921875 C-6.50534134 39.97360718 -6.50534134 39.97360718 -6.50680542 38.21313477 C-6.50748744 35.77522731 -6.50563165 33.33731805 -6.50146484 30.89941406 C-6.49611692 27.15295357 -6.50140914 23.40661298 -6.5078125 19.66015625 C-6.50715172 17.29817682 -6.50587057 14.93619746 -6.50390625 12.57421875 C-6.50593048 11.44508057 -6.50795471 10.31594238 -6.51004028 9.15258789 C-6.50688812 8.11481201 -6.50373596 7.07703613 -6.50048828 6.0078125 C-6.49969269 5.0892749 -6.49889709 4.1707373 -6.49807739 3.22436523 C-6.24203037 -0.98511924 -3.60756571 0.00695099 0 0 Z " fill="#F9FEF9" transform="translate(461.37109375,163.86328125)"/>
<path d="M0 0 C5.28 0 10.56 0 16 0 C16 13.2 16 26.4 16 40 C24.18252797 39.9604086 24.18252797 39.9604086 32.36499023 39.90991211 C33.37762939 39.90741455 34.39026855 39.90491699 35.43359375 39.90234375 C36.47572021 39.89710693 37.51784668 39.89187012 38.59155273 39.88647461 C41 40 41 40 42 41 C42.09873816 42.99799572 42.12971799 44.99957158 42.125 47 C42.12886719 48.6396875 42.12886719 48.6396875 42.1328125 50.3125 C42 53 42 53 41 54 C38.0546443 54.10110353 35.1332244 54.13969279 32.1875 54.1328125 C30.86141724 54.13424759 30.86141724 54.13424759 29.50854492 54.13571167 C27.63557871 54.13639351 25.76261014 54.13453893 23.88964844 54.13037109 C21.01231612 54.12502289 18.13513992 54.13031593 15.2578125 54.13671875 C13.44270799 54.13605797 11.62760357 54.13477681 9.8125 54.1328125 C8.94584717 54.13483673 8.07919434 54.13686096 7.1862793 54.13894653 C1.11495009 54.11495009 1.11495009 54.11495009 0 53 C-0.09346915 51.34261557 -0.11744977 49.68125356 -0.11352539 48.02124023 C-0.11344986 46.96021591 -0.11337433 45.89919159 -0.11329651 44.80601501 C-0.10813522 43.651866 -0.10297394 42.49771698 -0.09765625 41.30859375 C-0.0962413 40.13361832 -0.09482635 38.95864288 -0.09336853 37.74806213 C-0.08774992 33.97784936 -0.07519426 30.20769496 -0.0625 26.4375 C-0.0574874 23.88867273 -0.05292408 21.33984453 -0.04882812 18.79101562 C-0.03777444 12.5273211 -0.02049734 6.26367046 0 0 Z " fill="#F9FEF9" transform="translate(505,164)"/>
<path d="M0 0 C-0.99 0.33 -1.98 0.66 -3 1 C-3 1.99 -3 2.98 -3 4 C-1.5459375 3.814375 -1.5459375 3.814375 -0.0625 3.625 C5.31387229 3.65765003 9.09515225 6.53533509 13 10 C17.14992074 14.87394946 19.67200339 19.75841594 21 26 C20.34 25.67 19.68 25.34 19 25 C19 24.34 19 23.68 19 23 C18.01 23 17.02 23 16 23 C15.814375 22.05125 15.62875 21.1025 15.4375 20.125 C14.26599195 16.61628301 14.26599195 16.61628301 10.375 15.625 C8.704375 15.315625 8.704375 15.315625 7 15 C6.505 11.535 6.505 11.535 6 8 C3.69 8 1.38 8 -1 8 C-1.268125 8.94875 -1.53625 9.8975 -1.8125 10.875 C-3 14 -3 14 -6 16 C-6.4846875 15.61328125 -6.969375 15.2265625 -7.46875 14.828125 C-15.89650537 8.28040736 -23.56854014 5.29492117 -34 3 C-30.30792676 0.63447569 -27.18155434 0.82696216 -22.875 0.9375 C-17.57253236 1.03009706 -12.41384445 0.88385404 -7.1484375 0.21875 C-4.75375061 -0.02507267 -2.40542362 -0.03376033 0 0 Z " fill="#E4E4E5" transform="translate(202,80)"/>
<path d="M0 0 C3.39581516 -0.0291544 6.79159786 -0.04685068 10.1875 -0.0625 C11.14720703 -0.07087891 12.10691406 -0.07925781 13.09570312 -0.08789062 C14.02705078 -0.09111328 14.95839844 -0.09433594 15.91796875 -0.09765625 C17.19837036 -0.10551147 17.19837036 -0.10551147 18.50463867 -0.11352539 C21.09246747 0.00420677 23.47661953 0.42892956 26 1 C21.29004604 3.46655943 16.32734028 5.35824173 11.41015625 7.3671875 C8.15382744 8.92634608 5.7835484 10.73960077 3 13 C0.6875 12.75 0.6875 12.75 -1 12 C-0.67 10.35 -0.34 8.7 0 7 C-4.97473561 7.51462782 -9.28470633 8.24547212 -14 10 C-14.99 10.33 -15.98 10.66 -17 11 C-17.33 12.98 -17.66 14.96 -18 17 C-18.33 16.34 -18.66 15.68 -19 15 C-19.99 14.67 -20.98 14.34 -22 14 C-16.74971113 7.46043902 -12.74436976 3.33605016 -4.125 2.3125 C-2.75091742 2.19685939 -1.37608552 2.08868107 0 2 C0 1.34 0 0.68 0 0 Z " fill="#E6E5E5" transform="translate(809,81)"/>
<path d="M0 0 C2.10388569 -0.05402274 4.20816714 -0.09280256 6.3125 -0.125 C8.07013672 -0.15980469 8.07013672 -0.15980469 9.86328125 -0.1953125 C13 0 13 0 16 2 C16.3125 5 16.3125 5 16 8 C14 10 14 10 10.7421875 10.1953125 C9.46601563 10.17210937 8.18984375 10.14890625 6.875 10.125 C4.95300781 10.09792969 4.95300781 10.09792969 2.9921875 10.0703125 C1.51105469 10.03550781 1.51105469 10.03550781 0 10 C0 6.7 0 3.4 0 0 Z " fill="#16B709" transform="translate(414,134)"/>
<path d="M0 0 C11.25 -0.40178571 11.25 -0.40178571 15 3 C14.8125 5.875 14.8125 5.875 14 9 C9.84598002 11.85588874 4.8404876 11.14449217 0 11 C0 7.37 0 3.74 0 0 Z " fill="#14D20B" transform="translate(625,175)"/>
<path d="M0 0 C1.95803507 -0.05389087 3.91648909 -0.09274217 5.875 -0.125 C7.51082031 -0.15980469 7.51082031 -0.15980469 9.1796875 -0.1953125 C12 0 12 0 14 2 C14.375 4.4375 14.375 4.4375 14 7 C12.5625 8.8125 12.5625 8.8125 10 10 C6.97793975 10.29058272 4.02069437 10.31861279 1 10 C0 9 0 9 -0.09765625 6.93359375 C-0.08605469 6.10988281 -0.07445312 5.28617187 -0.0625 4.4375 C-0.05347656 3.61121094 -0.04445313 2.78492187 -0.03515625 1.93359375 C-0.02355469 1.29550781 -0.01195312 0.65742187 0 0 Z " fill="#1EAC0F" transform="translate(414,114)"/>
<path d="M0 0 C-0.99 0.33 -1.98 0.66 -3 1 C-3 1.66 -3 2.32 -3 3 C-5 5 -5 5 -7.1640625 5.1953125 C-8.38222656 5.16050781 -8.38222656 5.16050781 -9.625 5.125 C-10.44226563 5.10695313 -11.25953125 5.08890625 -12.1015625 5.0703125 C-12.72804687 5.04710938 -13.35453125 5.02390625 -14 5 C-13.67 5.33 -13.34 5.66 -13 6 C-12.63837971 7.32594105 -12.30271961 8.65938457 -12 10 C-16.82499199 8.43513773 -21.56936764 6.6866916 -26.31640625 4.90234375 C-28.87057723 4.0435177 -31.34886593 3.46502713 -34 3 C-30.30792676 0.63447569 -27.18155434 0.82696216 -22.875 0.9375 C-17.57253236 1.03009706 -12.41384445 0.88385404 -7.1484375 0.21875 C-4.75375061 -0.02507267 -2.40542362 -0.03376033 0 0 Z " fill="#DAD7D7" transform="translate(202,80)"/>
<path d="M0 0 C3.39581516 -0.0291544 6.79159786 -0.04685068 10.1875 -0.0625 C11.14720703 -0.07087891 12.10691406 -0.07925781 13.09570312 -0.08789062 C14.02705078 -0.09111328 14.95839844 -0.09433594 15.91796875 -0.09765625 C17.19837036 -0.10551147 17.19837036 -0.10551147 18.50463867 -0.11352539 C21.09246747 0.00420677 23.47661953 0.42892956 26 1 C22.8367155 2.6720218 19.6178082 3.92221136 16.25 5.125 C15.26515625 5.47820312 14.2803125 5.83140625 13.265625 6.1953125 C12.51796875 6.46085937 11.7703125 6.72640625 11 7 C10.63261719 6.49855469 10.26523437 5.99710937 9.88671875 5.48046875 C7.12767014 3.315501 5.22607946 3.90874329 1.8125 4.3125 C0.72582031 4.43238281 -0.36085938 4.55226563 -1.48046875 4.67578125 C-2.31191406 4.78277344 -3.14335938 4.88976562 -4 5 C-4 4.34 -4 3.68 -4 3 C-2.68 2.67 -1.36 2.34 0 2 C0 1.34 0 0.68 0 0 Z " fill="#DEDCDD" transform="translate(809,81)"/>
<path d="M0 0 C4.0943094 0.49131713 6.12205537 0.91422335 8.765625 4.18359375 C11.35792532 8.41810373 13.2366802 12.0561729 14 17 C13.34 16.67 12.68 16.34 12 16 C12 15.34 12 14.68 12 14 C11.01 14 10.02 14 9 14 C8.814375 13.05125 8.62875 12.1025 8.4375 11.125 C7.26599195 7.61628301 7.26599195 7.61628301 3.375 6.625 C2.26125 6.41875 1.1475 6.2125 0 6 C-0.38218767 4.34385343 -0.71395102 2.67542976 -1 1 C-0.67 0.67 -0.34 0.34 0 0 Z " fill="#F3ECEA" transform="translate(209,89)"/>
<path d="M0 0 C-0.99 0.33 -1.98 0.66 -3 1 C-3 1.66 -3 2.32 -3 3 C-5 5 -5 5 -7.09375 5.16015625 C-8.28484375 5.11181641 -8.28484375 5.11181641 -9.5 5.0625 C-12.88207958 4.8800954 -12.88207958 4.8800954 -16 6 C-16.66 5.34 -17.32 4.68 -18 4 C-16.29946938 1.92713098 -15.35070453 1.07786829 -12.6953125 0.48828125 C-11.84710938 0.43027344 -10.99890625 0.37226562 -10.125 0.3125 C-9.28195313 0.24675781 -8.43890625 0.18101563 -7.5703125 0.11328125 C-5.04289369 0.00189045 -2.52950514 -0.02266582 0 0 Z " fill="#DED4D5" transform="translate(202,80)"/>
<path d="M0 0 C0.99 0.66 1.98 1.32 3 2 C3.4375 4.4375 3.4375 4.4375 3 7 C1 8.8125 1 8.8125 -1 10 C-2.5625 8.75 -2.5625 8.75 -4 7 C-3.6875 4.8125 -3.6875 4.8125 -3 3 C-2.34 3 -1.68 3 -1 3 C-0.67 2.01 -0.34 1.02 0 0 Z " fill="#ECEAEA" transform="translate(197,86)"/>
<path d="M0 0 C-2.625 4.875 -2.625 4.875 -6 6 C-6.99 5.34 -7.98 4.68 -9 4 C-8.25 2.0625 -8.25 2.0625 -7 0 C-4.04680182 -1.23843794 -3.12561472 -1.04187157 0 0 Z " fill="#F1F2F3" transform="translate(800,90)"/>
<path d="M0 0 C1.22589844 0.15275391 1.22589844 0.15275391 2.4765625 0.30859375 C3.41628906 0.43427734 3.41628906 0.43427734 4.375 0.5625 C-3.54096639 4.5625 -3.54096639 4.5625 -7.625 4.5625 C-7.25 2.625 -7.25 2.625 -6.625 0.5625 C-4.10446405 -0.69776798 -2.7707902 -0.35624445 0 0 Z " fill="#D9D6D5" transform="translate(830.625,81.4375)"/>
<path d="M0 0 C0.66 0.33 1.32 0.66 2 1 C1.01 2.485 1.01 2.485 0 4 C0.33 4.66 0.66 5.32 1 6 C-2.22515763 7.73662334 -5.51329166 8.8905928 -9 10 C-8.06409496 8.8944811 -7.12620142 7.79064547 -6.1875 6.6875 C-5.66542969 6.07261719 -5.14335938 5.45773438 -4.60546875 4.82421875 C-3.12827531 3.14575321 -1.59960869 1.56117966 0 0 Z " fill="#F7E8E3" transform="translate(735,211)"/>
<path d="M0 0 C0.66 0.33 1.32 0.66 2 1 C2 1.99 2 2.98 2 4 C0.68 4.33 -0.64 4.66 -2 5 C-2.33 6.98 -2.66 8.96 -3 11 C-3.33 10.34 -3.66 9.68 -4 9 C-4.99 8.67 -5.98 8.34 -7 8 C-4.69 5.36 -2.38 2.72 0 0 Z " fill="#F1DFDC" transform="translate(794,87)"/>
<path d="M0 0 C0.66 0.33 1.32 0.66 2 1 C-1.3 4.3 -4.6 7.6 -8 11 C-8.66 10.67 -9.32 10.34 -10 10 C-6.92118304 6.12948725 -3.99926986 2.97088618 0 0 Z " fill="#86AC60" transform="translate(118,92)"/>
<path d="M0 0 C2.97 0 5.94 0 9 0 C9 0.99 9 1.98 9 3 C6.69 3.33 4.38 3.66 2 4 C2 3.01 2 2.02 2 1 C1.34 0.67 0.68 0.34 0 0 Z " fill="#5CAC47" transform="translate(800,80)"/>
<path d="M0 0 C3.37503669 1.1858237 5.64722731 2.27573689 8 5 C6.02 5 4.04 5 2 5 C1.34 3.35 0.68 1.7 0 0 Z " fill="#E8D8D6" transform="translate(206,85)"/>
<path d="M0 0 C0 0.99 0 1.98 0 3 C-3.3 2.34 -6.6 1.68 -10 1 C-5.64467851 -1.17766075 -4.53374042 -1.03039555 0 0 Z " fill="#C5BFB7" transform="translate(178,82)"/>
</svg>
