<?xml version="1.0" encoding="UTF-8"?>
<svg version="1.1" xmlns="http://www.w3.org/2000/svg" width="1023" height="360">
<path d="M0 0 C1.559595 -0.00218016 1.559595 -0.00218016 3.15069696 -0.00440437 C6.62755084 -0.00804779 10.10436041 -0.00458561 13.58121395 -0.0011425 C16.10210678 -0.00229498 18.62299944 -0.00388336 21.14389175 -0.00586975 C26.62133021 -0.00917414 32.09875519 -0.00937593 37.57619381 -0.00682259 C45.72179549 -0.00303582 53.86738886 -0.00497613 62.01299048 -0.00803089 C76.56409533 -0.01329475 91.11519578 -0.01284087 105.66630104 -0.00995198 C118.40466214 -0.00743546 131.14302164 -0.00678016 143.88138294 -0.00797462 C144.72667265 -0.00805101 145.57196237 -0.00812739 146.44286692 -0.00820609 C149.87433445 -0.00851744 153.30580198 -0.00883584 156.73726952 -0.00916586 C188.92861027 -0.01222488 221.11994824 -0.00945171 253.31128856 -0.00406896 C281.89133172 0.00067362 310.47137042 0.00025455 339.05141354 -0.00452995 C371.17367891 -0.00988949 403.29594182 -0.01200492 435.41820759 -0.00891769 C438.84555876 -0.00859698 442.27290994 -0.00828414 445.70026112 -0.00797462 C446.96607647 -0.00785601 446.96607647 -0.00785601 448.25746384 -0.007735 C460.9808146 -0.00659925 473.70416357 -0.00792465 486.42751408 -0.01045418 C500.90524395 -0.01331818 515.38296875 -0.01258866 529.86069799 -0.00717343 C537.95558458 -0.0042452 546.05046018 -0.00403376 554.14534647 -0.00781961 C560.20099436 -0.0103384 566.25662812 -0.00759052 572.31227516 -0.00284503 C574.75371596 -0.00173244 577.19515823 -0.0022862 579.63659806 -0.00472082 C591.43460418 -0.01557881 603.16626413 0.07718464 614.93846744 0.90356839 C619.05516032 1.17912052 623.13634502 1.22576141 627.25917721 1.15318489 C628.75787306 1.14056714 630.25657107 1.1282042 631.75527096 1.11607552 C634.02373891 1.09116627 636.29208114 1.06286291 638.56044674 1.02989388 C650.10448269 0.87402607 659.75922425 1.37364405 670.19667721 6.68834114 C670.88761471 7.03912727 671.57855221 7.38991341 672.29042721 7.75132942 C678.48127012 11.02466529 683.48105711 14.98743191 688.25917721 20.12584114 C688.98749752 20.90830208 689.71581783 21.69076302 690.46620846 22.49693489 C698.74638546 32.0982533 701.10953257 40.47975013 702.25917721 53.12584114 C662.98917721 53.45584114 623.71917721 53.78584114 583.25917721 54.12584114 C574.67624259 73.27238759 566.20715692 92.41767678 558.19618893 111.80308723 C546.50104249 140.04936112 531.04446363 159.51795118 502.25917721 172.12584114 C494.03933635 175.28879745 486.49117754 177.24619237 477.64380646 177.26006222 C476.68032234 177.26359056 476.68032234 177.26359056 475.6973739 177.26719019 C473.54832583 177.27383902 471.39933879 177.27342322 469.25028133 177.27301216 C467.69249313 177.27631336 466.13470577 177.28003947 464.5769195 177.28415364 C460.29823702 177.29415275 456.01956858 177.29788707 451.74087608 177.30054295 C447.12510356 177.30445223 442.50934208 177.31403015 437.89357662 177.32275581 C426.74722611 177.34250295 415.60087471 177.35258437 404.45451108 177.3614836 C399.20201045 177.36586951 393.94951083 177.37123555 388.69701099 177.37647247 C371.23040285 177.39348325 353.76379533 177.40797655 336.29718018 177.41522121 C331.76620196 177.41713102 327.23522376 177.41905137 322.70424557 177.42100716 C321.57813023 177.4214909 320.4520149 177.42197464 319.29177486 177.42247304 C301.05695395 177.43077009 282.82219871 177.4561022 264.58740646 177.48858783 C245.8549272 177.52168729 227.12248128 177.5396726 208.38997263 177.54286546 C197.8769374 177.54502791 187.36399793 177.55373781 176.85099125 177.57932663 C167.89605157 177.60107309 158.94123091 177.60906466 149.98626781 177.59935985 C145.4213491 177.59482654 140.85667575 177.59664469 136.29179096 177.61612129 C132.10359908 177.63383551 127.91583006 177.63268897 123.72763317 177.617224 C122.22149388 177.61486038 120.71532467 177.61910599 119.20923091 177.63105265 C106.14817942 177.72814491 93.78245419 175.66226948 82.13417721 169.43834114 C81.475144 169.09512825 80.8161108 168.75191536 80.1371069 168.39830208 C60.57054152 157.95965732 46.04613729 143.6290162 37.07167721 123.25084114 C36.3773962 121.70541634 36.3773962 121.70541634 35.66908932 120.12877083 C30.7128269 109.03511558 25.94622719 97.85819764 21.19716549 86.67466927 C18.43801393 80.18924087 15.65733197 73.71299037 12.88027096 67.23521614 C12.60346052 66.5895192 12.32665009 65.94382225 12.04145145 65.27855873 C10.44761338 61.56087754 8.85350299 57.8433132 7.25917721 54.12584114 C6.65195859 54.1216092 6.04473997 54.11737726 5.41912079 54.11301708 C-9.33559008 54.00984603 -24.09025384 53.90122887 -38.84487915 53.78650188 C-45.98001731 53.73115368 -53.11516046 53.67766913 -60.25034428 53.62852669 C-67.12975819 53.58114065 -74.00911735 53.52862096 -80.88846874 53.47290039 C-83.5196241 53.45244155 -86.15079365 53.43373446 -88.78197384 53.41676712 C-92.45312377 53.39280098 -96.12417491 53.36273612 -99.79526615 53.33116341 C-100.89505802 53.32540794 -101.99484989 53.31965248 -103.12796879 53.31372261 C-104.61933605 53.29903938 -104.61933605 53.29903938 -106.14083195 53.28405952 C-107.01008273 53.27760697 -107.87933352 53.27115442 -108.77492523 53.26450634 C-110.74082279 53.12584114 -110.74082279 53.12584114 -111.74082279 52.12584114 C-112.34622482 40.04412247 -106.03842975 28.47044837 -98.27988529 19.66099739 C-90.16375945 11.5573579 -81.65636404 6.54467104 -70.74082279 3.12584114 C-69.72262455 2.77908333 -68.70442631 2.43232552 -67.65537357 2.07505989 C-63.11330772 0.79046488 -58.69090364 0.89340732 -54.00254154 0.96568489 C-53.08173298 0.97088646 -52.16092442 0.97608803 -51.21221256 0.98144722 C-48.28408378 0.99915796 -45.35631524 1.03027966 -42.42832279 1.06334114 C-39.51107665 1.09114286 -36.59388753 1.11587868 -33.67656803 1.13452339 C-31.86775425 1.146583 -30.05896465 1.1639816 -28.25026798 1.1878376 C-24.15552477 1.2197672 -20.17031684 1.10584115 -16.10140949 0.62859452 C-10.72159726 0.07078727 -5.40495159 -0.01330966 0 0 Z " fill="#7F3EB1" transform="translate(207.74082279205322,79.87415885925293)"/>
<path d="M0 0 C-0.99 0.33 -1.98 0.66 -3 1 C-3 1.99 -3 2.98 -3 4 C-0.69 4 1.62 4 4 4 C4 4.66 4 5.32 4 6 C5.0828125 6.12375 5.0828125 6.12375 6.1875 6.25 C11.91117046 7.77631212 14.60230097 11.5232592 17.60351562 16.43237305 C20.1772911 21.16461022 22.16149627 26.15808448 24.19146729 31.14086914 C25.58939967 34.57138064 27.01118484 37.99201804 28.4296875 41.4140625 C28.72100555 42.11859558 29.01232361 42.82312866 29.31246948 43.54901123 C32.49761523 51.23649536 35.80366113 58.87058562 39.125 66.5 C39.53830566 67.45014984 39.53830566 67.45014984 39.95996094 68.41949463 C42.94950937 75.29310355 42.94950937 75.29310355 45.94458008 82.16430664 C47.55637267 85.88292416 49.02015812 89.64088256 50.4375 93.4375 C52.11857347 97.84463854 53.92052554 102.06722693 56.1015625 106.24609375 C57.88409353 109.72590433 59.38232448 113.35711047 60.7578125 117.015625 C66.6819825 131.85273545 77.90053322 142.15134742 91.69140625 149.5546875 C92.45324219 150.03164062 93.21507812 150.50859375 94 151 C94 151.66 94 152.32 94 153 C95.2684375 153.1546875 95.2684375 153.1546875 96.5625 153.3125 C100.3427868 154.06855736 103.48479903 155.43768846 107 157 C110.48108146 158.12495155 113.74770781 158.12853304 117.3932724 158.13422108 C118.03587462 158.13657331 118.67847684 158.13892554 119.34055185 158.14134905 C121.5025642 158.14802747 123.66451629 158.14758117 125.82653809 158.14717102 C127.38886306 158.15047038 128.95118719 158.1541961 130.51351023 158.1583125 C134.8139048 158.16833265 139.11428542 158.17204933 143.41469002 158.17470181 C148.05020872 158.17860487 152.68571638 158.18818328 157.32122803 158.19691467 C168.52030788 158.21668006 179.71938865 158.22674585 190.91848159 158.23564246 C196.19279143 158.24002565 201.46710026 158.24539242 206.7414093 158.25063133 C224.27571148 158.26764445 241.81001304 158.28213816 259.3443222 158.28938007 C263.89491273 158.29128996 268.44550325 158.29321029 272.99609375 158.29516602 C274.12711763 158.29564976 275.25814151 158.2961335 276.42343885 158.2966319 C294.74124503 158.30493043 313.05898587 158.33026402 331.37676352 158.36274669 C350.18487581 158.39582681 368.99295491 158.41382974 387.80109644 158.41702431 C398.36045539 158.41918863 408.91971909 158.4279258 419.47904968 158.45348549 C428.47291714 158.47520555 437.46666621 158.48323649 446.46055692 158.47351871 C451.04736746 158.46897768 455.6339338 158.47084874 460.22071075 158.49028015 C464.42547903 158.5079389 468.62982544 158.50689226 472.83459836 158.49138286 C474.35016522 158.48901088 475.86576149 158.49330897 477.38128346 158.50521151 C489.90713415 158.59743828 500.31120736 156.27585146 510.9375 149.5 C511.55689453 149.12230469 512.17628906 148.74460938 512.81445312 148.35546875 C515.64205179 146.60662452 518.22614038 144.81682943 520.81640625 142.71875 C523 141 523 141 525 141 C525 140.34 525 139.68 525 139 C526.15605952 137.80993873 527.31794323 136.62500714 528.5078125 135.46875 C537.07823523 127.03294124 541.20914192 116.77929138 545.81640625 105.828125 C546.26592651 104.76737762 546.71544678 103.70663025 547.17858887 102.61373901 C548.14227174 100.33955062 549.10469106 98.06482646 550.06594849 95.78961182 C552.35730531 90.37014339 554.66117551 84.95600703 556.96456718 79.54164505 C557.75251282 77.68940556 558.54023736 75.83707219 559.32789612 73.98471069 C560.37336972 71.5260686 561.41905291 69.067516 562.46484375 66.60900879 C563.47161765 64.24217749 564.47813695 61.87523787 565.484375 59.50817871 C568.23657385 53.03684862 570.99983517 46.57046911 573.78024292 40.11120605 C574.62820497 38.13641532 575.47228743 36.15995375 576.31228638 34.1817627 C577.4806315 31.43181104 578.66244335 28.68802818 579.84765625 25.9453125 C580.18116089 25.15180389 580.51466553 24.35829529 580.85827637 23.54074097 C584.49692728 15.2061119 589.30839091 7.60192809 598 4 C601.00655228 3.37344012 603.93226899 3.07811352 607 3 C607 2.34 607 1.68 607 1 C614.24077331 0.94907492 621.4815 0.91417214 628.72241211 0.89013672 C631.18304165 0.88011115 633.64365937 0.86648726 636.10424805 0.84912109 C639.65155972 0.82472122 643.19871314 0.81348213 646.74609375 0.8046875 C647.8370787 0.79436493 648.92806366 0.78404236 650.05210876 0.77340698 C659.55845567 0.7720267 667.45906859 2.24532655 675.9375 6.5625 C676.6284375 6.91328613 677.319375 7.26407227 678.03125 7.62548828 C684.22209291 10.89882415 689.2218799 14.86159077 694 20 C694.72832031 20.78246094 695.45664062 21.56492187 696.20703125 22.37109375 C704.48720825 31.97241216 706.85035536 40.35390899 708 53 C668.73 53.33 629.46 53.66 589 54 C580.41706539 73.14654645 571.94797971 92.29183564 563.93701172 111.67724609 C552.24186529 139.92351998 536.78528642 159.39211004 508 172 C499.78015914 175.16295631 492.23200033 177.12035123 483.38462925 177.13422108 C482.42114513 177.13774942 482.42114513 177.13774942 481.43819669 177.14134905 C479.28914862 177.14799788 477.14016158 177.14758208 474.99110413 177.14717102 C473.43331592 177.15047222 471.87552856 177.15419832 470.31774229 177.1583125 C466.03905981 177.16831161 461.76039137 177.17204593 457.48169887 177.17470181 C452.86592635 177.17861109 448.25016487 177.18818901 443.63439941 177.19691467 C432.4880489 177.21666181 421.3416975 177.22674323 410.19533387 177.23564246 C404.94283324 177.24002837 399.69033362 177.2453944 394.43783379 177.25063133 C376.97122564 177.26764211 359.50461812 177.28213541 342.03800297 177.28938007 C337.50702476 177.29128988 332.97604655 177.29321023 328.44506836 177.29516602 C327.31895303 177.29564976 326.19283769 177.2961335 325.03259765 177.2966319 C306.79777674 177.30492894 288.5630215 177.33026106 270.32822926 177.36274669 C251.59574999 177.39584615 232.86330407 177.41383146 214.13079542 177.41702431 C203.61776019 177.41918677 193.10482072 177.42789666 182.59181404 177.45348549 C173.63687436 177.47523195 164.6820537 177.48322352 155.7270906 177.47351871 C151.16217189 177.4689854 146.59749854 177.47080355 142.03261375 177.49028015 C137.84442187 177.50799437 133.65665286 177.50684783 129.46845596 177.49138286 C127.96231668 177.48901924 126.45614746 177.49326485 124.9500537 177.50521151 C111.88900221 177.60230377 99.52327698 175.53642834 87.875 169.3125 C87.2159668 168.96928711 86.55693359 168.62607422 85.87792969 168.27246094 C66.31136431 157.83381618 51.78696009 143.50317506 42.8125 123.125 C42.11821899 121.5795752 42.11821899 121.5795752 41.40991211 120.00292969 C36.45364969 108.90927444 31.68704998 97.7323565 26.93798828 86.54882812 C24.17883673 80.06339973 21.39815476 73.58714923 18.62109375 67.109375 C18.34428331 66.46367805 18.06747288 65.81798111 17.78227425 65.15271759 C16.18843617 61.4350364 14.59432578 57.71747206 13 54 C12.39278138 53.99576806 11.78556276 53.99153612 11.15994358 53.98717594 C-3.59476729 53.88400489 -18.34943105 53.77538773 -33.10405636 53.66066074 C-40.23919451 53.60531254 -47.37433767 53.55182799 -54.50952148 53.50268555 C-61.3889354 53.4552995 -68.26829456 53.40277982 -75.14764595 53.34705925 C-77.77880131 53.32660041 -80.40997086 53.30789332 -83.04115105 53.29092598 C-86.71230098 53.26695984 -90.38335212 53.23689498 -94.05444336 53.20532227 C-95.15423523 53.1995668 -96.2540271 53.19381134 -97.387146 53.18788147 C-98.87851326 53.17319824 -98.87851326 53.17319824 -100.40000916 53.15821838 C-101.26925994 53.15176583 -102.13851072 53.14531328 -103.03410244 53.1386652 C-105 53 -105 53 -106 52 C-106.60540202 39.91828133 -100.29760695 28.34460723 -92.5390625 19.53515625 C-84.42293666 11.43151676 -75.91554125 6.4188299 -65 3 C-63.98180176 2.65324219 -62.96360352 2.30648437 -61.91455078 1.94921875 C-57.37248493 0.66462374 -52.95008085 0.76756618 -48.26171875 0.83984375 C-47.34091019 0.84504532 -46.42010162 0.85024689 -45.47138977 0.85560608 C-42.54326099 0.87331682 -39.61549245 0.90443852 -36.6875 0.9375 C-33.77025386 0.96530172 -30.85306474 0.99003754 -27.93574524 1.00868225 C-26.12693146 1.02074186 -24.31814186 1.03814046 -22.50944519 1.06199646 C-17.38735289 1.10193702 -12.40699399 0.82260013 -7.31941223 0.2177887 C-4.86676064 -0.01251094 -2.46198305 -0.03473238 0 0 Z " fill="#FCFAFB" transform="translate(202,80)"/>
<path d="M0 0 C8.05770771 5.25502677 13.64154168 11.47082313 16.8828125 20.53515625 C18.5115079 24.92341481 20.56037225 29.11026349 22.55078125 33.34375 C25.91796875 40.68421875 25.91796875 40.68421875 25.91796875 44.32421875 C10.54995426 44.34754828 -4.81805941 44.36519819 -20.18608761 44.37603092 C-27.32124866 44.38119376 -34.45639873 44.38823623 -41.59155273 44.3996582 C-48.47092862 44.4106655 -55.35029306 44.41649492 -62.2296772 44.41909599 C-64.8608474 44.42095081 -67.49201694 44.42457248 -70.1231823 44.42994881 C-73.79429375 44.4371551 -77.46535728 44.43820987 -81.13647461 44.43774414 C-82.78616241 44.44313705 -82.78616241 44.44313705 -84.46917725 44.44863892 C-85.46342209 44.44726425 -86.45766693 44.44588959 -87.48204041 44.44447327 C-88.35129119 44.44539506 -89.22054197 44.44631685 -90.11613369 44.44726658 C-92.08203125 44.32421875 -92.08203125 44.32421875 -93.08203125 43.32421875 C-93.68743327 31.24250008 -87.3796382 19.66882598 -79.62109375 10.859375 C-71.50496791 2.75573551 -62.9975725 -2.25695135 -52.08203125 -5.67578125 C-51.03273437 -6.03800781 -49.9834375 -6.40023437 -48.90234375 -6.7734375 C-32.36667099 -10.67910254 -14.81247744 -8.0539326 0 0 Z " fill="#8D47C2" transform="translate(189.08203125,88.67578125)"/>
<path d="M0 0 C0.6909375 0.35078613 1.381875 0.70157227 2.09375 1.06298828 C8.28459291 4.33632415 13.2843799 8.29909077 18.0625 13.4375 C19.15498047 14.61119141 19.15498047 14.61119141 20.26953125 15.80859375 C28.54970825 25.40991216 30.91285536 33.79140899 32.0625 46.4375 C-7.2075 46.7675 -46.4775 47.0975 -86.9375 47.4375 C-86.9375 42.45158277 -85.95231589 39.72656561 -83.8125 35.4375 C-83.16321429 34.10327702 -82.51479222 32.76863346 -81.8671875 31.43359375 C-81.54073242 30.76569824 -81.21427734 30.09780273 -80.87792969 29.40966797 C-79.47945641 26.47694025 -78.22524152 23.48268778 -76.9375 20.5 C-71.16576451 8.12333885 -61.80153111 1.50374588 -49.25 -3.5 C-33.65369227 -8.37284435 -14.61072661 -7.43970647 0 0 Z " fill="#8D47C2" transform="translate(877.9375,86.5625)"/>
<path d="M0 0 C5.81625 -0.061875 11.6325 -0.12375 17.625 -0.1875 C19.4498291 -0.21481201 21.2746582 -0.24212402 23.15478516 -0.27026367 C24.61620422 -0.27903313 26.07763067 -0.28667598 27.5390625 -0.29296875 C28.65897583 -0.3159906 28.65897583 -0.3159906 29.80151367 -0.33947754 C35.77183034 -0.34244195 39.82848802 1.05706823 44.375 5.125 C46.64292306 9.13747926 46.80985781 12.49020354 46 17 C44.26016146 20.18970398 42.55304507 22.44695493 40 25 C40.928125 25.53625 41.85625 26.0725 42.8125 26.625 C46.40223668 29.29970576 47.63882 30.75632117 49 35 C49.27995573 39.72531333 48.68416741 43.63979598 45.75 47.4375 C39.50645701 53.25534687 31.74342505 53.13171546 23.53515625 53.09765625 C22.29386963 53.09515869 21.05258301 53.09266113 19.77368164 53.09008789 C18.2189917 53.08098389 16.66430176 53.07187988 15.0625 53.0625 C7.6065625 53.0315625 7.6065625 53.0315625 0 53 C0 35.51 0 18.02 0 0 Z " fill="#FBF9FC" transform="translate(398,103)"/>
<path d="M0 0 C8.971875 -0.0928125 8.971875 -0.0928125 18.125 -0.1875 C20.00203613 -0.21481201 21.87907227 -0.24212402 23.81298828 -0.27026367 C25.31542316 -0.27903275 26.81786521 -0.28667569 28.3203125 -0.29296875 C29.47261353 -0.3159906 29.47261353 -0.3159906 30.64819336 -0.33947754 C35.51334999 -0.34182786 38.77185218 0.33611635 43 3 C46.26331306 6.52094303 47.28814732 9.30393216 47.5 14 C47.30276179 18.68440761 46.14463293 21.41861249 43 25 C40.34200077 27.41636294 39.64705667 28 36 28 C36 28.66 36 29.32 36 30 C36.5775 30.226875 37.155 30.45375 37.75 30.6875 C42.67806388 33.56220393 45.13700484 38.79092574 47.75 43.6875 C48.36359375 44.82574219 48.9771875 45.96398437 49.609375 47.13671875 C51 50 51 50 51 52 C34.87577769 53.52115305 34.87577769 53.52115305 30.64453125 50.08984375 C29.12031786 47.4459669 28.03115777 44.87052028 27 42 C26.20230819 40.31598397 25.37062622 38.6474927 24.5 37 C24.1596875 36.278125 23.819375 35.55625 23.46875 34.8125 C21.70522326 32.30399507 21.70522326 32.30399507 16 31 C16 37.93 16 44.86 16 52 C10.72 52 5.44 52 0 52 C0 34.84 0 17.68 0 0 Z " fill="#FBFAFC" transform="translate(609,165)"/>
<path d="M0 0 C0.76166977 0.00222061 1.52333954 0.00444122 2.30809021 0.00672913 C3.16890701 0.00680466 4.02972382 0.00688019 4.91662598 0.00695801 C5.8520372 0.01211929 6.78744843 0.01728058 7.75120544 0.02259827 C8.70422043 0.02401321 9.65723541 0.02542816 10.63912964 0.02688599 C13.69605085 0.032503 16.75289996 0.04505836 19.80979919 0.05775452 C21.87685543 0.06276733 23.94391281 0.06733061 26.01097107 0.07142639 C31.08977507 0.08247795 36.16852489 0.09975397 41.24729919 0.12025452 C41.24729919 3.75025452 41.24729919 7.38025452 41.24729919 11.12025452 C32.33729919 11.12025452 23.42729919 11.12025452 14.24729919 11.12025452 C14.24729919 14.09025452 14.24729919 17.06025452 14.24729919 20.12025452 C22.49729919 20.12025452 30.74729919 20.12025452 39.24729919 20.12025452 C39.24729919 23.42025452 39.24729919 26.72025452 39.24729919 30.12025452 C30.99729919 30.12025452 22.74729919 30.12025452 14.24729919 30.12025452 C14.24729919 33.75025452 14.24729919 37.38025452 14.24729919 41.12025452 C23.48729919 41.12025452 32.72729919 41.12025452 42.24729919 41.12025452 C42.24729919 45.08025452 42.24729919 49.04025452 42.24729919 53.12025452 C35.99933666 53.14489907 29.75140216 53.16308795 23.50340271 53.17518616 C21.37611905 53.1802275 19.24883888 53.18706043 17.12156677 53.19569397 C14.07102094 53.20776831 11.02052074 53.21348466 7.96995544 53.21791077 C6.53402794 53.22565269 6.53402794 53.22565269 5.0690918 53.23355103 C4.18825424 53.23362656 3.30741669 53.23370209 2.39988708 53.23377991 C1.23073509 53.23711082 1.23073509 53.23711082 0.03796387 53.24050903 C-1.75270081 53.12025452 -1.75270081 53.12025452 -2.75270081 52.12025452 C-2.85124503 50.52962142 -2.88068774 48.93463974 -2.88209534 47.34095764 C-2.8852475 46.32320251 -2.88839966 45.30544739 -2.89164734 44.2568512 C-2.88962311 43.14958679 -2.88759888 42.04232239 -2.88551331 40.90150452 C-2.88647003 39.77329285 -2.88742676 38.64508118 -2.88841248 37.48268127 C-2.88909448 35.09185226 -2.88723878 32.7010214 -2.8830719 30.31019592 C-2.87772396 26.63616301 -2.88301623 22.96225235 -2.88941956 19.28822327 C-2.88875878 16.97181674 -2.88747762 14.6554103 -2.88551331 12.33900452 C-2.88854965 10.67810791 -2.88854965 10.67810791 -2.89164734 8.98365784 C-2.88849518 7.96590271 -2.88534302 6.94814758 -2.88209534 5.89955139 C-2.88129974 4.99877869 -2.88050415 4.09800598 -2.87968445 3.16993713 C-2.72033142 0.5977702 -2.58227379 0.17717233 0 0 Z " fill="#FAF7FC" transform="translate(457.75270080566406,102.87974548339844)"/>
<path d="M0 0 C14.52 0 29.04 0 44 0 C44 3.3 44 6.6 44 10 C43 11 43 11 40.40795898 11.11352539 C39.28204346 11.10828857 38.15612793 11.10305176 36.99609375 11.09765625 C35.78115234 11.09443359 34.56621094 11.09121094 33.31445312 11.08789062 C32.03505859 11.07951172 30.75566406 11.07113281 29.4375 11.0625 C28.15423828 11.05798828 26.87097656 11.05347656 25.54882812 11.04882812 C22.36583978 11.03699545 19.18294238 11.02051068 16 11 C16 13.64 16 16.28 16 19 C24.58 19 33.16 19 42 19 C42 22.3 42 25.6 42 29 C41 30 41 30 38.59155273 30.11352539 C37.54942627 30.10828857 36.5072998 30.10305176 35.43359375 30.09765625 C34.30888672 30.09443359 33.18417969 30.09121094 32.02539062 30.08789062 C30.84138672 30.07951172 29.65738281 30.07113281 28.4375 30.0625 C27.24962891 30.05798828 26.06175781 30.05347656 24.83789062 30.04882812 C21.89190588 30.03699686 18.94594684 30.01906076 16 30 C16 33.63 16 37.26 16 41 C25.24 41 34.48 41 44 41 C44 44.63 44 48.26 44 52 C29.48 52 14.96 52 0 52 C0 34.84 0 17.68 0 0 Z " fill="#FBFAFC" transform="translate(402,165)"/>
<path d="M0 0 C14.19 0 28.38 0 43 0 C43 3.63 43 7.26 43 11 C34.09 11 25.18 11 16 11 C16 13.64 16 16.28 16 19 C24.25 19 32.5 19 41 19 C41 22.63 41 26.26 41 30 C32.75 30 24.5 30 16 30 C16 33.63 16 37.26 16 41 C25.24 41 34.48 41 44 41 C44 44.63 44 48.26 44 52 C29.48 52 14.96 52 0 52 C0 34.84 0 17.68 0 0 Z " fill="#FCFBFD" transform="translate(555,165)"/>
<path d="M0 0 C1.2384668 -0.04350586 1.2384668 -0.04350586 2.50195312 -0.08789062 C8.40351167 -0.14834788 12.92183711 0.89953407 17.8125 4.3125 C20.42275477 7.37954936 21.71298203 9.16804335 22.0625 13.1875 C21.98 13.88875 21.8975 14.59 21.8125 15.3125 C16.90233041 16.72867184 11.87107742 17.05336252 6.8125 16.3125 C5.0625 13.875 5.0625 13.875 3.8125 11.3125 C0.35274142 10.23482871 0.35274142 10.23482871 -3.1875 10.3125 C-4.1775 10.9725 -5.1675 11.6325 -6.1875 12.3125 C-6.1875 13.3025 -6.1875 14.2925 -6.1875 15.3125 C-5.36507813 15.55484375 -4.54265625 15.7971875 -3.6953125 16.046875 C19.08764321 22.88702336 19.08764321 22.88702336 22.9140625 29.1015625 C24.63976275 33.34828571 24.34064768 37.81998451 23.8125 42.3125 C21.22763667 47.57796233 17.64137039 51.12920939 12.20703125 53.40234375 C8.01298558 54.52686923 4.19559649 54.64292779 -0.125 54.625 C-1.28418945 54.64916992 -1.28418945 54.64916992 -2.46679688 54.67382812 C-8.56673516 54.67898445 -13.44481436 53.76561923 -18.1484375 49.55859375 C-18.61507813 48.96175781 -19.08171875 48.36492187 -19.5625 47.75 C-20.04460937 47.15058594 -20.52671875 46.55117187 -21.0234375 45.93359375 C-23.37839023 42.65404548 -23.27419116 40.30029314 -23.1875 36.3125 C-18.13747778 35.27659801 -13.31333611 35.20998328 -8.1875 35.3125 C-7.506875 37.0140625 -7.506875 37.0140625 -6.8125 38.75 C-5.61654194 42.35971692 -5.61654194 42.35971692 -3.1875 43.3125 C-1.48047265 43.38246014 0.22918003 43.39690154 1.9375 43.375 C2.84757812 43.36597656 3.75765625 43.35695312 4.6953125 43.34765625 C5.39398438 43.33605469 6.09265625 43.32445312 6.8125 43.3125 C6.8125 40.3425 6.8125 37.3725 6.8125 34.3125 C5.7503125 34.07015625 4.688125 33.8278125 3.59375 33.578125 C-13.5760082 29.55358239 -13.5760082 29.55358239 -19.625 24.125 C-21.79754312 20.21442239 -22.50163868 16.77939875 -22.1875 12.3125 C-20.47731274 6.88451435 -17.12699678 4.04498758 -12.1875 1.3125 C-8.10050724 -0.04983092 -4.28176461 0.04899044 0 0 Z " fill="#F8F6FB" transform="translate(369.1875,163.6875)"/>
<path d="M0 0 C4.65085241 3.86594784 5.10874192 6.76119343 6 13 C1.05 13 -3.9 13 -9 13 C-9.66 11.68 -10.32 10.36 -11 9 C-13.28705831 7.85647084 -14.59264762 7.89665561 -17.125 7.9375 C-19.043125 7.9684375 -19.043125 7.9684375 -21 8 C-21.33 9.32 -21.66 10.64 -22 12 C-17.55440616 14.06771807 -13.15112959 15.57302828 -8.4375 16.9375 C-2.27479966 18.7912629 2.79929451 20.91493545 7 26 C8.67517931 31.02553792 9.00081137 36.25478377 7.1640625 41.29296875 C4.23448233 46.53278832 0.66610221 49.06028536 -5 51 C-8.52039075 51.5381445 -11.94454167 51.56121306 -15.5 51.5 C-16.39847656 51.51546875 -17.29695312 51.5309375 -18.22265625 51.546875 C-25.52420328 51.50436235 -31.02073012 49.82246621 -36.375 44.75 C-38.49292333 41.16582206 -39.24895952 38.09658445 -40 34 C-39 33 -39 33 -35.62109375 32.90234375 C-34.22652923 32.90901631 -32.83198257 32.92097468 -31.4375 32.9375 C-30.72658203 32.94201172 -30.01566406 32.94652344 -29.28320312 32.95117188 C-27.52209987 32.96299136 -25.76103964 32.98092737 -24 33 C-23.319375 34.4540625 -23.319375 34.4540625 -22.625 35.9375 C-21.34213779 39.07079582 -21.34213779 39.07079582 -19 40 C-17.48154798 40.09472912 -15.95889616 40.1298841 -14.4375 40.125 C-13.63183594 40.12757813 -12.82617188 40.13015625 -11.99609375 40.1328125 C-10.00057979 40.22011391 -10.00057979 40.22011391 -9 39 C-8.95919217 37.00041636 -8.95745644 34.99954746 -9 33 C-13.43705523 30.93625338 -17.777543 29.48930764 -22.5 28.1875 C-28.82608081 26.28749184 -33.75327476 23.861321 -37.15234375 18.01953125 C-38.68250918 14.37392975 -38.65230095 10.86706501 -37.34765625 7.1328125 C-34.89384008 2.22518017 -31.92459645 0.28641978 -27 -2 C-18.8202175 -4.71452959 -7.50237179 -4.16798433 0 0 Z " fill="#F9F7FC" transform="translate(546,105)"/>
<path d="M0 0 C16.5 0 33 0 50 0 C50 3.96 50 7.92 50 12 C49.67 12.33 49.34 12.66 49 13 C43.72 13 38.44 13 33 13 C33 26.2 33 39.4 33 53 C27.72 53 22.44 53 17 53 C17 39.8 17 26.6 17 13 C11.72 13 6.44 13 1 13 C0.67 12.67 0.34 12.34 0 12 C0 8.04 0 4.08 0 0 Z " fill="#FAF7FC" transform="translate(559,103)"/>
<path d="M0 0 C0.70253906 0.00386719 1.40507812 0.00773438 2.12890625 0.01171875 C2.83144531 0.00785156 3.53398437 0.00398437 4.2578125 0 C9.50229247 0.01010497 9.50229247 0.01010497 10.62890625 1.13671875 C10.71758924 4.09377196 10.74410921 7.02736931 10.7265625 9.984375 C10.72514755 10.87080185 10.7237326 11.7572287 10.72227478 12.67051697 C10.7166584 15.51345129 10.70410316 18.35630806 10.69140625 21.19921875 C10.68639336 23.12174366 10.68183009 25.04426979 10.67773438 26.96679688 C10.66753273 31.69015839 10.64796062 36.41335133 10.62890625 41.13671875 C18.87890625 41.13671875 27.12890625 41.13671875 35.62890625 41.13671875 C35.62890625 45.09671875 35.62890625 49.05671875 35.62890625 53.13671875 C29.80819003 53.16136513 23.98750391 53.17955305 18.16674805 53.19165039 C16.18497184 53.19669142 14.20319936 53.20352413 12.22143555 53.2121582 C9.37938516 53.2242339 6.53738378 53.2299492 3.6953125 53.234375 C2.357817 53.24211693 2.357817 53.24211693 0.99330139 53.25001526 C-1.12849976 53.25021052 -3.25020155 53.19881905 -5.37109375 53.13671875 C-7.0119712 51.4958413 -6.4984913 49.61840813 -6.50048828 47.35742188 C-6.50364044 46.33966675 -6.5067926 45.32191162 -6.51004028 44.27331543 C-6.50801605 43.16605103 -6.50599182 42.05878662 -6.50390625 40.91796875 C-6.50486298 39.78975708 -6.5058197 38.66154541 -6.50680542 37.49914551 C-6.50748743 35.10831649 -6.50563172 32.71748564 -6.50146484 30.32666016 C-6.49611691 26.65262724 -6.50140918 22.97871658 -6.5078125 19.3046875 C-6.50715172 16.98828098 -6.50587057 14.67187453 -6.50390625 12.35546875 C-6.5069426 10.69457214 -6.5069426 10.69457214 -6.51004028 9.00012207 C-6.50688812 7.98236694 -6.50373596 6.96461182 -6.50048828 5.91601562 C-6.49969269 5.01524292 -6.49889709 4.11447021 -6.49807739 3.18640137 C-6.23938258 -0.98927232 -3.56600543 0.00687092 0 0 Z " fill="#FAF8FC" transform="translate(461.37109375,163.86328125)"/>
<path d="M0 0 C5.28 0 10.56 0 16 0 C16.33 12.87 16.66 25.74 17 39 C25.25 39.33 33.5 39.66 42 40 C42 43.96 42 47.92 42 52 C28.14 52 14.28 52 0 52 C0 34.84 0 17.68 0 0 Z " fill="#FCFCFD" transform="translate(505,165)"/>
<path d="M0 0 C3.41659491 -0.05816623 6.83306205 -0.09365195 10.25 -0.125 C11.21808594 -0.14175781 12.18617188 -0.15851563 13.18359375 -0.17578125 C14.11816406 -0.18222656 15.05273438 -0.18867187 16.015625 -0.1953125 C16.87446289 -0.20578613 17.73330078 -0.21625977 18.61816406 -0.22705078 C21.17903596 0.01706677 22.79511029 0.71009488 25 2 C23.65808594 2.41958984 23.65808594 2.41958984 22.2890625 2.84765625 C14.15594879 5.54424299 7.85072125 8.73456962 1 14 C0.01 14.495 0.01 14.495 -1 15 C-0.67 12.36 -0.34 9.72 0 7 C-4.07983585 7.1298302 -4.07983585 7.1298302 -8 8 C-10.35322796 10.90412546 -10.35322796 10.90412546 -12 14 C-15.62326739 15.2077558 -16.64146369 14.54311128 -20 13 C-17.86175375 7.83910197 -13.88101689 5.43297601 -9 3 C-5.89995269 2.27634438 -3.20502561 2.10174684 0 2 C0 1.34 0 0.68 0 0 Z " fill="#DBD6DE" transform="translate(809,81)"/>
<path d="M0 0 C-0.99 0.33 -1.98 0.66 -3 1 C-3 1.99 -3 2.98 -3 4 C-0.69 4 1.62 4 4 4 C4 4.66 4 5.32 4 6 C6.475 6.495 6.475 6.495 9 7 C9 7.33 9 7.66 9 8 C5.7 8 2.4 8 -1 8 C-1.28875 8.94875 -1.5775 9.8975 -1.875 10.875 C-3 14 -3 14 -5 16 C-5.47308594 15.61328125 -5.94617188 15.2265625 -6.43359375 14.828125 C-13.94610095 8.91184253 -21.93684819 5.82821759 -31 3 C-30.67 2.34 -30.34 1.68 -30 1 C-28.54980469 1.01740234 -28.54980469 1.01740234 -27.0703125 1.03515625 C-20.38141324 1.08151496 -13.79710992 1.05858231 -7.1484375 0.21875 C-4.75375061 -0.02507267 -2.40542362 -0.03376033 0 0 Z " fill="#DBD2DD" transform="translate(202,80)"/>
<path d="M0 0 C2.26979665 -0.10794277 4.54105196 -0.18556176 6.8125 -0.25 C8.07707031 -0.29640625 9.34164063 -0.3428125 10.64453125 -0.390625 C14 0 14 0 15.9609375 1.8515625 C17.32536739 4.67275212 17.00124009 6.07329821 16 9 C13.35005887 11.64994113 11.35657109 11.92248165 7.67578125 12.1328125 C6.89589844 12.13023437 6.11601562 12.12765625 5.3125 12.125 C4.52488281 12.12757813 3.73726563 12.13015625 2.92578125 12.1328125 C1 12 1 12 0 11 C-0.07226502 9.14712498 -0.0838122 7.29166122 -0.0625 5.4375 C-0.05347656 4.42558594 -0.04445313 3.41367188 -0.03515625 2.37109375 C-0.02355469 1.58863281 -0.01195312 0.80617187 0 0 Z " fill="#884CBB" transform="translate(414,133)"/>
<path d="M0 0 C10.365241 -0.37018718 10.365241 -0.37018718 13.32421875 1.35546875 C15 3 15 3 15.5625 5.5 C15 8 15 8 13.125 9.8125 C8.62380021 11.52295592 4.80213332 11.19208533 0 11 C0 7.37 0 3.74 0 0 Z " fill="#7639A6" transform="translate(625,175)"/>
<path d="M0 0 C10.48038431 -0.36989592 10.48038431 -0.36989592 12.84375 1.3125 C14.5684867 3.8296833 14.19767151 6.03492731 14 9 C10.78817851 10.90608098 8.46117397 11.22266247 4.75 11.125 C3.1825 11.08375 1.615 11.0425 0 11 C0 7.37 0 3.74 0 0 Z " fill="#8B4BC2" transform="translate(414,113)"/>
<path d="M0 0 C0.33 0.66 0.66 1.32 1 2 C2.99883869 2.34022786 4.99890722 2.67329097 7 3 C9 5 9 5 9.3125 7.4375 C8.94498232 10.45114499 8.17924015 11.02775891 6 13 C4.84775972 12.07038578 3.70340824 11.1309875 2.5625 10.1875 C1.92441406 9.66542969 1.28632813 9.14335938 0.62890625 8.60546875 C-1 7 -1 7 -2 4 C-2.66 3.67 -3.32 3.34 -4 3 C-3.67 2.34 -3.34 1.68 -3 1 C-2.01 1.33 -1.02 1.66 0 2 C0 1.34 0 0.68 0 0 Z " fill="#EDECEF" transform="translate(191,83)"/>
<path d="M0 0 C-0.35636547 2.87637846 -0.88845332 3.89445968 -3.03125 5.921875 C-3.8459375 6.52515625 -4.660625 7.1284375 -5.5 7.75 C-6.3146875 8.36359375 -7.129375 8.9771875 -7.96875 9.609375 C-10 11 -10 11 -11 11 C-10.67 8.36 -10.34 5.72 -10 3 C-10.99 2.67 -11.98 2.34 -13 2 C-12.67 1.34 -12.34 0.68 -12 0 C-7.70894191 -1.09771253 -4.30788144 -0.92311745 0 0 Z " fill="#E8E5EA" transform="translate(819,85)"/>
<path d="M0 0 C-0.598125 0.226875 -1.19625 0.45375 -1.8125 0.6875 C-4.56085774 2.33651464 -5.39211876 4.27359268 -7 7 C-10.62326739 8.2077558 -11.64146369 7.54311128 -15 6 C-13.60364382 2.62547256 -12.1393647 0.88361882 -9 -1 C-5.24066452 -2.22178403 -3.35153442 -2.11022538 0 0 Z " fill="#EEF0F1" transform="translate(804,88)"/>
<path d="M0 0 C6.18948459 2.52659306 9.22565842 9.04080871 11.9375 14.875 C13 18 13 18 12 21 C11.67 20.34 11.34 19.68 11 19 C10.34 19.33 9.68 19.66 9 20 C8.34 16.7 7.68 13.4 7 10 C6.030625 9.71125 5.06125 9.4225 4.0625 9.125 C1 8 1 8 0 6 C0.33333333 4.66666667 0.66666667 3.33333333 1 2 C0.67 1.34 0.34 0.68 0 0 Z " fill="#E5D3E5" transform="translate(211,88)"/>
<path d="M0 0 C2 2 2 2 2.125 5.625 C2.08375 6.73875 2.0425 7.8525 2 9 C0.68 9 -0.64 9 -2 9 C-2.12375 9.556875 -2.2475 10.11375 -2.375 10.6875 C-3.05976855 13.22114364 -3.99133763 15.57921032 -5 18 C-5.66 18 -6.32 18 -7 18 C-5.06375702 11.79522136 -2.74390859 5.89174281 0 0 Z " fill="#F0EBF0" transform="translate(749,183)"/>
<path d="M0 0 C0.33 0.66 0.66 1.32 1 2 C3.52733235 2.65555119 3.52733235 2.65555119 6 3 C4.86695008 6.39914975 3.87481525 7.05254451 1 9 C0.54625 8.195625 0.0925 7.39125 -0.375 6.5625 C-1.74725665 3.91143428 -1.74725665 3.91143428 -4 3 C-3.67 2.34 -3.34 1.68 -3 1 C-2.01 1.33 -1.02 1.66 0 2 C0 1.34 0 0.68 0 0 Z " fill="#E6E5E7" transform="translate(191,83)"/>
<path d="M0 0 C0.66 0.33 1.32 0.66 2 1 C-1.96 4.96 -5.92 8.92 -10 13 C-10.66 12.67 -11.32 12.34 -12 12 C-8.27653164 7.57905197 -4.70478962 3.42166518 0 0 Z " fill="#A96FC0" transform="translate(118,92)"/>
<path d="M0 0 C1.9375 0.3125 1.9375 0.3125 4 1 C4.33 1.99 4.66 2.98 5 4 C4.01 5.485 4.01 5.485 3 7 C2.34 7 1.68 7 1 7 C0.67 4.69 0.34 2.38 0 0 Z " fill="#F0EFEF" transform="translate(208,88)"/>
<path d="M0 0 C0 0.66 0 1.32 0 2 C-2.5 3.5 -2.5 3.5 -5 5 C-5 5.66 -5 6.32 -5 7 C-5.66 7 -6.32 7 -7 7 C-7 6.34 -7 5.68 -7 5 C-8.65 5 -10.3 5 -12 5 C-8.45976076 2.63984051 -4.36489861 0 0 0 Z " fill="#ECDFE5" transform="translate(710,232)"/>
<path d="M0 0 C0.33 0 0.66 0 1 0 C1.39253254 4.44870215 0.15305957 7.14243493 -2 11 C-2.66 11 -3.32 11 -4 11 C-3.52269162 9.5410574 -3.04308958 8.08286504 -2.5625 6.625 C-2.29566406 5.81289062 -2.02882813 5.00078125 -1.75390625 4.1640625 C-1 2 -1 2 0 0 Z " fill="#E7DBE4" transform="translate(746,190)"/>
<path d="M0 0 C0.66 0.33 1.32 0.66 2 1 C-1 4 -4 7 -7 10 C-6.52727227 5.74545047 -4.03562624 3.80795427 -1 1 C-0.67 0.67 -0.34 0.34 0 0 Z " fill="#E4D9EE" transform="translate(355,166)"/>
<path d="M0 0 C0.66 0.99 1.32 1.98 2 3 C1.38125 3.0825 0.7625 3.165 0.125 3.25 C-2.18437567 3.81258459 -2.18437567 3.81258459 -3.25 6.0625 C-3.4975 6.701875 -3.745 7.34125 -4 8 C-4.66 7.67 -5.32 7.34 -6 7 C-4.60667426 3.63279613 -3.0210714 2.0140476 0 0 Z " fill="#E4CDDD" transform="translate(795,87)"/>
<path d="M0 0 C0.66 0.99 1.32 1.98 2 3 C-0.625 8.75 -0.625 8.75 -4 11 C-3.52269162 9.5410574 -3.04308958 8.08286504 -2.5625 6.625 C-2.29566406 5.81289062 -2.02882813 5.00078125 -1.75390625 4.1640625 C-1 2 -1 2 0 0 Z " fill="#E6D0E0" transform="translate(770,134)"/>
<path d="M0 0 C1.39195915 4.17587745 -0.17676781 6.13474776 -2 10 C-2.66 10 -3.32 10 -4 10 C-3.43454163 6.04179141 -2.19097652 3.3340947 0 0 Z " fill="#E9D9E8" transform="translate(788,94)"/>
<path d="M0 0 C2.97 0.495 2.97 0.495 6 1 C5.625 2.9375 5.625 2.9375 5 5 C4.01 5.495 4.01 5.495 3 6 C3 4.68 3 3.36 3 2 C2.01 2 1.02 2 0 2 C0 1.34 0 0.68 0 0 Z " fill="#E3DFE4" transform="translate(813,84)"/>
</svg>
