<?xml version="1.0" encoding="UTF-8"?>
<svg version="1.1" xmlns="http://www.w3.org/2000/svg" width="1023" height="360">
<path d="M0 0 C1.559595 -0.00218016 1.559595 -0.00218016 3.15069696 -0.00440437 C6.62755084 -0.00804779 10.10436041 -0.00458561 13.58121395 -0.0011425 C16.10210678 -0.00229498 18.62299944 -0.00388336 21.14389175 -0.00586975 C26.62133021 -0.00917414 32.09875519 -0.00937593 37.57619381 -0.00682259 C45.72179549 -0.00303582 53.86738886 -0.00497613 62.01299048 -0.00803089 C76.56409533 -0.01329475 91.11519578 -0.01284087 105.66630104 -0.00995198 C118.40466214 -0.00743546 131.14302164 -0.00678016 143.88138294 -0.00797462 C144.72667265 -0.00805101 145.57196237 -0.00812739 146.44286692 -0.00820609 C149.87433445 -0.00851744 153.30580198 -0.00883584 156.73726952 -0.00916586 C188.92861027 -0.01222488 221.11994824 -0.00945171 253.31128856 -0.00406896 C281.89133172 0.00067362 310.47137042 0.00025455 339.05141354 -0.00452995 C371.17367891 -0.00988949 403.29594182 -0.01200492 435.41820759 -0.00891769 C438.84555876 -0.00859698 442.27290994 -0.00828414 445.70026112 -0.00797462 C446.96607647 -0.00785601 446.96607647 -0.00785601 448.25746384 -0.007735 C460.9808146 -0.00659925 473.70416357 -0.00792465 486.42751408 -0.01045418 C500.90524395 -0.01331818 515.38296875 -0.01258866 529.86069799 -0.00717343 C537.95558458 -0.0042452 546.05046018 -0.00403376 554.14534647 -0.00781961 C560.20099436 -0.0103384 566.25662812 -0.00759052 572.31227516 -0.00284503 C574.75371596 -0.00173244 577.19515823 -0.0022862 579.63659806 -0.00472082 C591.43460418 -0.01557881 603.16626413 0.07718464 614.93846744 0.90356839 C619.05516032 1.17912052 623.13634502 1.22576141 627.25917721 1.15318489 C628.75787306 1.14056714 630.25657107 1.1282042 631.75527096 1.11607552 C634.02373891 1.09116627 636.29208114 1.06286291 638.56044674 1.02989388 C650.10448269 0.87402607 659.75922425 1.37364405 670.19667721 6.68834114 C670.88761471 7.03912727 671.57855221 7.38991341 672.29042721 7.75132942 C678.48127012 11.02466529 683.48105711 14.98743191 688.25917721 20.12584114 C688.98749752 20.90830208 689.71581783 21.69076302 690.46620846 22.49693489 C698.74638546 32.0982533 701.10953257 40.47975013 702.25917721 53.12584114 C662.98917721 53.45584114 623.71917721 53.78584114 583.25917721 54.12584114 C574.67624259 73.27238759 566.20715692 92.41767678 558.19618893 111.80308723 C546.50104249 140.04936112 531.04446363 159.51795118 502.25917721 172.12584114 C494.03933635 175.28879745 486.49117754 177.24619237 477.64380646 177.26006222 C476.68032234 177.26359056 476.68032234 177.26359056 475.6973739 177.26719019 C473.54832583 177.27383902 471.39933879 177.27342322 469.25028133 177.27301216 C467.69249313 177.27631336 466.13470577 177.28003947 464.5769195 177.28415364 C460.29823702 177.29415275 456.01956858 177.29788707 451.74087608 177.30054295 C447.12510356 177.30445223 442.50934208 177.31403015 437.89357662 177.32275581 C426.74722611 177.34250295 415.60087471 177.35258437 404.45451108 177.3614836 C399.20201045 177.36586951 393.94951083 177.37123555 388.69701099 177.37647247 C371.23040285 177.39348325 353.76379533 177.40797655 336.29718018 177.41522121 C331.76620196 177.41713102 327.23522376 177.41905137 322.70424557 177.42100716 C321.57813023 177.4214909 320.4520149 177.42197464 319.29177486 177.42247304 C301.05695395 177.43077009 282.82219871 177.4561022 264.58740646 177.48858783 C245.8549272 177.52168729 227.12248128 177.5396726 208.38997263 177.54286546 C197.8769374 177.54502791 187.36399793 177.55373781 176.85099125 177.57932663 C167.89605157 177.60107309 158.94123091 177.60906466 149.98626781 177.59935985 C145.4213491 177.59482654 140.85667575 177.59664469 136.29179096 177.61612129 C132.10359908 177.63383551 127.91583006 177.63268897 123.72763317 177.617224 C122.22149388 177.61486038 120.71532467 177.61910599 119.20923091 177.63105265 C106.14817942 177.72814491 93.78245419 175.66226948 82.13417721 169.43834114 C81.475144 169.09512825 80.8161108 168.75191536 80.1371069 168.39830208 C60.57054152 157.95965732 46.04613729 143.6290162 37.07167721 123.25084114 C36.3773962 121.70541634 36.3773962 121.70541634 35.66908932 120.12877083 C30.7128269 109.03511558 25.94622719 97.85819764 21.19716549 86.67466927 C18.43801393 80.18924087 15.65733197 73.71299037 12.88027096 67.23521614 C12.60346052 66.5895192 12.32665009 65.94382225 12.04145145 65.27855873 C10.44761338 61.56087754 8.85350299 57.8433132 7.25917721 54.12584114 C6.65195859 54.1216092 6.04473997 54.11737726 5.41912079 54.11301708 C-9.33559008 54.00984603 -24.09025384 53.90122887 -38.84487915 53.78650188 C-45.98001731 53.73115368 -53.11516046 53.67766913 -60.25034428 53.62852669 C-67.12975819 53.58114065 -74.00911735 53.52862096 -80.88846874 53.47290039 C-83.5196241 53.45244155 -86.15079365 53.43373446 -88.78197384 53.41676712 C-92.45312377 53.39280098 -96.12417491 53.36273612 -99.79526615 53.33116341 C-100.89505802 53.32540794 -101.99484989 53.31965248 -103.12796879 53.31372261 C-104.61933605 53.29903938 -104.61933605 53.29903938 -106.14083195 53.28405952 C-107.01008273 53.27760697 -107.87933352 53.27115442 -108.77492523 53.26450634 C-110.74082279 53.12584114 -110.74082279 53.12584114 -111.74082279 52.12584114 C-112.34622482 40.04412247 -106.03842975 28.47044837 -98.27988529 19.66099739 C-90.16375945 11.5573579 -81.65636404 6.54467104 -70.74082279 3.12584114 C-69.72262455 2.77908333 -68.70442631 2.43232552 -67.65537357 2.07505989 C-63.11330772 0.79046488 -58.69090364 0.89340732 -54.00254154 0.96568489 C-53.08173298 0.97088646 -52.16092442 0.97608803 -51.21221256 0.98144722 C-48.28408378 0.99915796 -45.35631524 1.03027966 -42.42832279 1.06334114 C-39.51107665 1.09114286 -36.59388753 1.11587868 -33.67656803 1.13452339 C-31.86775425 1.146583 -30.05896465 1.1639816 -28.25026798 1.1878376 C-24.15552477 1.2197672 -20.17031684 1.10584115 -16.10140949 0.62859452 C-10.72159726 0.07078727 -5.40495159 -0.01330966 0 0 Z " fill="#662E91FF" transform="translate(207.74082279205322,79.87415885925293)"/>
<path d="M0 0 C-0.99 0.33 -1.98 0.66 -3 1 C-3 1.99 -3 2.98 -3 4 C-2.443125 4.00257812 -1.88625 4.00515625 -1.3125 4.0078125 C5.36227619 4.34606129 9.30063097 6.28949364 14 11 C19.55053906 18.62525511 22.90700013 27.45272001 26.4375 36.125 C27.29494784 38.20556568 28.15520709 40.28495472 29.01556396 42.36431885 C29.57658059 43.72083273 30.13669373 45.07772065 30.69586182 46.43499756 C33.25106754 52.63342585 35.91920846 58.77603569 38.6328125 64.90625 C40.11484699 68.25988232 41.55658095 71.62957988 43 75 C44.16173446 77.66883127 45.33065121 80.33449752 46.5 83 C49.08887067 88.90126852 51.64461749 94.81572901 54.16845703 100.74511719 C55.54083268 103.95900467 56.92608652 107.16714561 58.3125 110.375 C59.00375977 112.00308594 59.00375977 112.00308594 59.70898438 113.6640625 C62.57375108 120.26218999 65.76133899 126.18700098 70 132 C70.43948975 132.61351318 70.87897949 133.22702637 71.33178711 133.85913086 C81.08981662 147.04317701 99.34684695 155.40525677 115 158 C120.18398604 158.39511104 125.35127265 158.41104667 130.54696655 158.38768005 C132.07780077 158.39186192 133.60863188 158.39734408 135.13945735 158.40399987 C139.3111733 158.41836138 143.48269014 158.41423911 147.65441656 158.40683305 C152.1671464 158.4020805 156.67983445 158.41462959 161.19255066 158.42485046 C170.01976198 158.44200298 178.846902 158.44288586 187.67412566 158.43763756 C194.85237472 158.43358805 202.03060279 158.43504868 209.20885086 158.44038582 C210.23241767 158.44113424 211.25598448 158.44188266 212.31056846 158.44265376 C214.39026955 158.44418532 216.46997064 158.44572367 218.54967172 158.44726873 C238.03079971 158.46098091 257.51188747 158.45556507 276.99301453 158.44408352 C294.7941417 158.43415223 312.59516491 158.44709231 330.39627604 158.47101771 C348.69958169 158.49543168 367.00283897 158.50501095 385.30616057 158.49836498 C395.5720412 158.49487791 405.8378419 158.49707103 416.10371017 158.51461601 C424.84256753 158.52936672 433.58128868 158.52993598 442.32014345 158.5125451 C446.77371339 158.50405639 451.22704029 158.5018332 455.68059731 158.51719666 C459.76675569 158.53111754 463.85246452 158.52618665 467.9385974 158.50695742 C469.40750912 158.50321964 470.87645751 158.50605441 472.34533636 158.51656907 C491.57800933 158.6443247 509.48475338 153.02023058 524 140 C524.77085937 139.31035156 525.54171875 138.62070313 526.3359375 137.91015625 C535.44138234 129.30384709 540.11561766 118.97990919 544.9375 107.5625 C545.49378428 106.26020657 546.0507688 104.95821207 546.60839844 103.65649414 C547.7927128 100.88881522 548.97286951 98.11941604 550.14990234 95.34863281 C552.04401513 90.89203026 553.95238253 86.44161378 555.86328125 81.9921875 C560.8831348 70.3006076 565.88722097 58.60229592 570.89038086 46.90356445 C571.95162808 44.42545295 573.0164054 41.94888739 574.08203125 39.47265625 C575.36654877 36.48707331 576.63251821 33.49452935 577.88671875 30.49609375 C586.93129534 9.027941 586.93129534 9.027941 598 4 C601.09663039 3.29622037 603.80326681 3.10148359 607 3 C607 2.34 607 1.68 607 1 C614.24077331 0.94907492 621.4815 0.91417214 628.72241211 0.89013672 C631.18304165 0.88011115 633.64365937 0.86648726 636.10424805 0.84912109 C639.65155972 0.82472122 643.19871314 0.81348213 646.74609375 0.8046875 C647.8370787 0.79436493 648.92806366 0.78404236 650.05210876 0.77340698 C659.55845567 0.7720267 667.45906859 2.24532655 675.9375 6.5625 C676.6284375 6.91328613 677.319375 7.26407227 678.03125 7.62548828 C684.22209291 10.89882415 689.2218799 14.86159077 694 20 C694.72832031 20.78246094 695.45664062 21.56492187 696.20703125 22.37109375 C704.48720825 31.97241216 706.85035536 40.35390899 708 53 C668.73 53.33 629.46 53.66 589 54 C580.41706539 73.14654645 571.94797971 92.29183564 563.93701172 111.67724609 C552.24186529 139.92351998 536.78528642 159.39211004 508 172 C499.78015914 175.16295631 492.23200033 177.12035123 483.38462925 177.13422108 C482.42114513 177.13774942 482.42114513 177.13774942 481.43819669 177.14134905 C479.28914862 177.14799788 477.14016158 177.14758208 474.99110413 177.14717102 C473.43331592 177.15047222 471.87552856 177.15419832 470.31774229 177.1583125 C466.03905981 177.16831161 461.76039137 177.17204593 457.48169887 177.17470181 C452.86592635 177.17861109 448.25016487 177.18818901 443.63439941 177.19691467 C432.4880489 177.21666181 421.3416975 177.22674323 410.19533387 177.23564246 C404.94283324 177.24002837 399.69033362 177.2453944 394.43783379 177.25063133 C376.97122564 177.26764211 359.50461812 177.28213541 342.03800297 177.28938007 C337.50702476 177.29128988 332.97604655 177.29321023 328.44506836 177.29516602 C327.31895303 177.29564976 326.19283769 177.2961335 325.03259765 177.2966319 C306.79777674 177.30492894 288.5630215 177.33026106 270.32822926 177.36274669 C251.59574999 177.39584615 232.86330407 177.41383146 214.13079542 177.41702431 C203.61776019 177.41918677 193.10482072 177.42789666 182.59181404 177.45348549 C173.63687436 177.47523195 164.6820537 177.48322352 155.7270906 177.47351871 C151.16217189 177.4689854 146.59749854 177.47080355 142.03261375 177.49028015 C137.84442187 177.50799437 133.65665286 177.50684783 129.46845596 177.49138286 C127.96231668 177.48901924 126.45614746 177.49326485 124.9500537 177.50521151 C111.88900221 177.60230377 99.52327698 175.53642834 87.875 169.3125 C87.2159668 168.96928711 86.55693359 168.62607422 85.87792969 168.27246094 C66.31136431 157.83381618 51.78696009 143.50317506 42.8125 123.125 C42.11821899 121.5795752 42.11821899 121.5795752 41.40991211 120.00292969 C36.45364969 108.90927444 31.68704998 97.7323565 26.93798828 86.54882812 C24.17883673 80.06339973 21.39815476 73.58714923 18.62109375 67.109375 C18.34428331 66.46367805 18.06747288 65.81798111 17.78227425 65.15271759 C16.18843617 61.4350364 14.59432578 57.71747206 13 54 C12.39278138 53.99576806 11.78556276 53.99153612 11.15994358 53.98717594 C-3.59476729 53.88400489 -18.34943105 53.77538773 -33.10405636 53.66066074 C-40.23919451 53.60531254 -47.37433767 53.55182799 -54.50952148 53.50268555 C-61.3889354 53.4552995 -68.26829456 53.40277982 -75.14764595 53.34705925 C-77.77880131 53.32660041 -80.40997086 53.30789332 -83.04115105 53.29092598 C-86.71230098 53.26695984 -90.38335212 53.23689498 -94.05444336 53.20532227 C-95.15423523 53.1995668 -96.2540271 53.19381134 -97.387146 53.18788147 C-98.87851326 53.17319824 -98.87851326 53.17319824 -100.40000916 53.15821838 C-101.26925994 53.15176583 -102.13851072 53.14531328 -103.03410244 53.1386652 C-105 53 -105 53 -106 52 C-106.60540202 39.91828133 -100.29760695 28.34460723 -92.5390625 19.53515625 C-84.42293666 11.43151676 -75.91554125 6.4188299 -65 3 C-63.98180176 2.65324219 -62.96360352 2.30648437 -61.91455078 1.94921875 C-57.37248493 0.66462374 -52.95008085 0.76756618 -48.26171875 0.83984375 C-47.34091019 0.84504532 -46.42010162 0.85024689 -45.47138977 0.85560608 C-42.54326099 0.87331682 -39.61549245 0.90443852 -36.6875 0.9375 C-33.77025386 0.96530172 -30.85306474 0.99003754 -27.93574524 1.00868225 C-26.12693146 1.02074186 -24.31814186 1.03814046 -22.50944519 1.06199646 C-17.38735289 1.10193702 -12.40699399 0.82260013 -7.31941223 0.2177887 C-4.86676064 -0.01251094 -2.46198305 -0.03473238 0 0 Z " fill="#FCFBFA" transform="translate(202,80)"/>
<path d="M0 0 C1.04220703 -0.00773437 2.08441406 -0.01546875 3.15820312 -0.0234375 C12.7184476 0.00056814 20.5977203 1.47045325 29.125 5.8125 C29.8159375 6.16328613 30.506875 6.51407227 31.21875 6.87548828 C37.40959291 10.14882415 42.4093799 14.11159077 47.1875 19.25 C48.27998047 20.42369141 48.27998047 20.42369141 49.39453125 21.62109375 C57.67470825 31.22241216 60.03785536 39.60390899 61.1875 52.25 C21.9175 52.58 -17.3525 52.91 -57.8125 53.25 C-55.96901699 45.87606795 -53.59680955 39.58994411 -50.5625 32.6875 C-50.09714844 31.58986328 -49.63179687 30.49222656 -49.15234375 29.36132812 C-43.46631562 16.36804896 -35.72691065 9.3240247 -22.5 3.9375 C-20.94517822 3.35411186 -19.38220316 2.79207425 -17.8125 2.25 C-16.96945312 1.89035156 -16.12640625 1.53070313 -15.2578125 1.16015625 C-10.17478738 -0.18263837 -5.23383517 -0.03841347 0 0 Z " fill="#662E91FF" transform="translate(848.8125,80.75)"/>
<path d="M0 0 C0.84433594 0.40734375 1.68867188 0.8146875 2.55859375 1.234375 C4.78730309 2.39195084 6.88752898 3.64344221 9 5 C9.69738281 5.42796875 10.39476562 5.8559375 11.11328125 6.296875 C20.49972404 12.58985736 24.27249471 23.38627096 28.375 33.5 C28.82488281 34.5828125 29.27476562 35.665625 29.73828125 36.78125 C33 44.712481 33 44.712481 33 47 C17.63198551 47.02332953 2.26397184 47.04097944 -13.10405636 47.05181217 C-20.23921741 47.05697501 -27.37436748 47.06401748 -34.50952148 47.07543945 C-41.38889737 47.08644675 -48.26826181 47.09227617 -55.14764595 47.09487724 C-57.77881615 47.09673206 -60.40998569 47.10035373 -63.04115105 47.10573006 C-66.7122625 47.11293635 -70.38332603 47.11399112 -74.05444336 47.11352539 C-75.70413116 47.1189183 -75.70413116 47.1189183 -77.387146 47.12442017 C-78.38139084 47.1230455 -79.37563568 47.12167084 -80.40000916 47.12025452 C-81.26925994 47.12117631 -82.13851072 47.1220981 -83.03410244 47.12304783 C-85 47 -85 47 -86 46 C-86.60540202 33.91828133 -80.29760695 22.34460723 -72.5390625 13.53515625 C-64.42293666 5.43151676 -55.91554125 0.4188299 -45 -3 C-43.95585937 -3.36351563 -42.91171875 -3.72703125 -41.8359375 -4.1015625 C-28.11514069 -7.31519108 -12.60904984 -6.3131969 0 0 Z " fill="#662E91FF" transform="translate(182,86)"/>
<path d="M0 0 C8.971875 -0.12375 8.971875 -0.12375 18.125 -0.25 C20.00203613 -0.28641602 21.87907227 -0.32283203 23.81298828 -0.36035156 C25.31541808 -0.37204362 26.81786064 -0.38223423 28.3203125 -0.390625 C29.08851318 -0.41108887 29.85671387 -0.43155273 30.64819336 -0.45263672 C35.91121708 -0.45602675 38.79180136 0.57043191 43 4 C45.78149582 6.9226288 46.43131601 8.92409258 46.4375 12.9375 C46.33611897 16.56053769 46.10063946 17.83897686 44.125 21 C43.073125 21.99 43.073125 21.99 42 23 C41.34 23.66 40.68 24.32 40 25 C40.7425 25.391875 41.485 25.78375 42.25 26.1875 C45.36045733 28.23757415 47.07874239 29.79790398 49 33 C49.74910214 39.74191923 48.42276274 43.76964968 44.3125 49.25 C39.01138821 53.26165216 32.18155408 53.28978468 25.78125 53.1953125 C25.12092773 53.19329834 24.46060547 53.19128418 23.78027344 53.18920898 C21.35344323 53.17887848 18.92671337 53.15095784 16.5 53.125 C11.055 53.08375 5.61 53.0425 0 53 C0 35.51 0 18.02 0 0 Z " fill="#FEFEFC" transform="translate(398,103)"/>
<path d="M0 0 C0.66768906 -0.00095673 1.33537811 -0.00191345 2.02330017 -0.00289917 C3.44318739 -0.00358145 4.86307771 -0.00172388 6.28295898 0.00244141 C8.43155179 0.00773055 10.57992988 0.00252886 12.72851562 -0.00390625 C32.08276525 -0.01888293 32.08276525 -0.01888293 36.33984375 4.0078125 C36.90574219 4.52085937 37.47164062 5.03390625 38.0546875 5.5625 C41.15093269 9.17029874 40.8523494 13.81126903 40.81640625 18.328125 C40.2472294 22.18349269 38.79182368 24.18594886 36.0703125 26.89453125 C33.90633424 28.50104439 32.08907781 29.05379091 29.40234375 29.1328125 C29.40234375 29.7928125 29.40234375 30.4528125 29.40234375 31.1328125 C29.97984375 31.3596875 30.55734375 31.5865625 31.15234375 31.8203125 C36.04606451 34.67498294 38.57023419 39.9140013 41.21484375 44.7578125 C41.84003906 45.88445312 42.46523438 47.01109375 43.109375 48.171875 C44.40234375 51.1328125 44.40234375 51.1328125 43.40234375 54.1328125 C37.75221753 55.26548728 31.89110791 56.375758 26.40234375 54.1328125 C21.68095561 49.46244622 18.99071885 43.12190063 16.36938477 37.10400391 C15.45347499 34.96835078 15.45347499 34.96835078 13.40234375 33.1328125 C11.33360341 32.490289 11.33360341 32.490289 9.40234375 32.1328125 C9.41019897 33.07918579 9.41019897 33.07918579 9.41821289 34.04467773 C9.43892201 36.88654597 9.45198441 39.72839838 9.46484375 42.5703125 C9.47322266 43.56353516 9.48160156 44.55675781 9.49023438 45.58007812 C9.49506836 46.99643555 9.49506836 46.99643555 9.5 48.44140625 C9.50785522 49.75322876 9.50785522 49.75322876 9.51586914 51.09155273 C9.40234375 53.1328125 9.40234375 53.1328125 8.40234375 54.1328125 C5.89098271 54.23256282 3.4133096 54.27163433 0.90234375 54.2578125 C0.19980469 54.26167969 -0.50273438 54.26554687 -1.2265625 54.26953125 C-6.47104247 54.25942628 -6.47104247 54.25942628 -7.59765625 53.1328125 C-7.69627223 51.51153827 -7.72564392 49.88598882 -7.72705078 48.26171875 C-7.73020294 47.22394287 -7.7333551 46.18616699 -7.73660278 45.11694336 C-7.73457855 43.98780518 -7.73255432 42.85866699 -7.73046875 41.6953125 C-7.73190384 39.96970093 -7.73190384 39.96970093 -7.73336792 38.20922852 C-7.73404994 35.77132106 -7.73219415 33.3334118 -7.72802734 30.89550781 C-7.72267942 27.14904732 -7.72797164 23.40270673 -7.734375 19.65625 C-7.73371422 17.29427057 -7.73243307 14.93229121 -7.73046875 12.5703125 C-7.73249298 11.44117432 -7.73451721 10.31203613 -7.73660278 9.14868164 C-7.73345062 8.11090576 -7.73029846 7.07312988 -7.72705078 6.00390625 C-7.72625519 5.08536865 -7.72545959 4.16683105 -7.72463989 3.22045898 C-7.44809493 -1.32601731 -3.77016898 0.00342232 0 0 Z " fill="#FEFEFA" transform="translate(615.59765625,163.8671875)"/>
<path d="M0 0 C0.76166977 0.00222061 1.52333954 0.00444122 2.30809021 0.00672913 C3.16890701 0.00680466 4.02972382 0.00688019 4.91662598 0.00695801 C5.8520372 0.01211929 6.78744843 0.01728058 7.75120544 0.02259827 C8.70422043 0.02401321 9.65723541 0.02542816 10.63912964 0.02688599 C13.69605085 0.032503 16.75289996 0.04505836 19.80979919 0.05775452 C21.87685543 0.06276733 23.94391281 0.06733061 26.01097107 0.07142639 C31.08977507 0.08247795 36.16852489 0.09975397 41.24729919 0.12025452 C41.24729919 4.08025452 41.24729919 8.04025452 41.24729919 12.12025452 C32.33729919 12.12025452 23.42729919 12.12025452 14.24729919 12.12025452 C14.24729919 14.76025452 14.24729919 17.40025452 14.24729919 20.12025452 C22.49729919 20.12025452 30.74729919 20.12025452 39.24729919 20.12025452 C39.24729919 23.75025452 39.24729919 27.38025452 39.24729919 31.12025452 C30.99729919 31.12025452 22.74729919 31.12025452 14.24729919 31.12025452 C14.24729919 34.42025452 14.24729919 37.72025452 14.24729919 41.12025452 C23.48729919 41.12025452 32.72729919 41.12025452 42.24729919 41.12025452 C42.24729919 45.41025452 42.24729919 49.70025452 42.24729919 54.12025452 C35.99933666 54.14489907 29.75140216 54.16308795 23.50340271 54.17518616 C21.37611905 54.1802275 19.24883888 54.18706043 17.12156677 54.19569397 C14.07102094 54.20776831 11.02052074 54.21348466 7.96995544 54.21791077 C6.53402794 54.22565269 6.53402794 54.22565269 5.0690918 54.23355103 C4.18825424 54.23362656 3.30741669 54.23370209 2.39988708 54.23377991 C1.23073509 54.23711082 1.23073509 54.23711082 0.03796387 54.24050903 C-1.75270081 54.12025452 -1.75270081 54.12025452 -2.75270081 53.12025452 C-2.85131679 51.49898028 -2.88068847 49.87343084 -2.88209534 48.24916077 C-2.8852475 47.21138489 -2.88839966 46.17360901 -2.89164734 45.10438538 C-2.88962311 43.97524719 -2.88759888 42.84610901 -2.88551331 41.68275452 C-2.88694839 39.95714294 -2.88694839 39.95714294 -2.88841248 38.19667053 C-2.88909449 35.75876308 -2.88723871 33.32085382 -2.8830719 30.88294983 C-2.87772398 27.13648934 -2.8830162 23.39014875 -2.88941956 19.64369202 C-2.88875878 17.28171258 -2.88747762 14.91973323 -2.88551331 12.55775452 C-2.88753754 11.42861633 -2.88956177 10.29947815 -2.89164734 9.13612366 C-2.88849518 8.09834778 -2.88534302 7.0605719 -2.88209534 5.99134827 C-2.88129974 5.07281067 -2.88050415 4.15427307 -2.87968445 3.207901 C-2.72182853 0.61270577 -2.60526887 0.17875005 0 0 Z " fill="#FEFEF8" transform="translate(556.7527008056641,163.87974548339844)"/>
<path d="M0 0 C7.074375 -0.020625 14.14875 -0.04125 21.4375 -0.0625 C24.79119751 -0.07615601 24.79119751 -0.07615601 28.21264648 -0.09008789 C29.97379496 -0.09300696 31.73494411 -0.09555554 33.49609375 -0.09765625 C34.41942505 -0.10277222 35.34275635 -0.10788818 36.29406738 -0.11315918 C37.16696411 -0.11328003 38.03986084 -0.11340088 38.93920898 -0.11352539 C40.08171364 -0.11685631 40.08171364 -0.11685631 41.24729919 -0.12025452 C43 0 43 0 44 1 C44 4.63 44 8.26 44 12 C34.76 12 25.52 12 16 12 C16 14.64 16 17.28 16 20 C24.58 20 33.16 20 42 20 C42 23.63 42 27.26 42 31 C33.42 31 24.84 31 16 31 C16 34.3 16 37.6 16 41 C16.84296631 40.99476318 17.68593262 40.98952637 18.55444336 40.98413086 C21.67227936 40.96712174 24.79009177 40.95456594 27.90795898 40.94506836 C29.25920386 40.94002943 30.61044326 40.93319823 31.96166992 40.92456055 C33.90020434 40.91247581 35.838778 40.90730172 37.77734375 40.90234375 C39.52905884 40.89448853 39.52905884 40.89448853 41.31616211 40.88647461 C44 41 44 41 45 42 C45.09851171 43.83115883 45.12972629 45.66619933 45.125 47.5 C45.12886719 49.00046875 45.12886719 49.00046875 45.1328125 50.53125 C45 53 45 53 44 54 C42.61839885 54.0927833 41.23211962 54.11747043 39.84741211 54.11352539 C38.95421265 54.11340454 38.06101318 54.11328369 37.14074707 54.11315918 C36.19582397 54.10804321 35.25090088 54.10292725 34.27734375 54.09765625 C33.41338989 54.09664917 32.54943604 54.09564209 31.65930176 54.09460449 C28.41868775 54.0893555 25.1780926 54.07539436 21.9375 54.0625 C14.698125 54.041875 7.45875 54.02125 0 54 C0 36.18 0 18.36 0 0 Z " fill="#FEFEF8" transform="translate(402,164)"/>
<path d="M0 0 C0.76166977 0.00222061 1.52333954 0.00444122 2.30809021 0.00672913 C3.16890701 0.00680466 4.02972382 0.00688019 4.91662598 0.00695801 C5.8520372 0.01211929 6.78744843 0.01728058 7.75120544 0.02259827 C8.70422043 0.02401321 9.65723541 0.02542816 10.63912964 0.02688599 C13.69605085 0.032503 16.75289996 0.04505836 19.80979919 0.05775452 C21.87685543 0.06276733 23.94391281 0.06733061 26.01097107 0.07142639 C31.08977507 0.08247795 36.16852489 0.09975397 41.24729919 0.12025452 C41.24729919 3.75025452 41.24729919 7.38025452 41.24729919 11.12025452 C32.33729919 11.12025452 23.42729919 11.12025452 14.24729919 11.12025452 C14.24729919 14.09025452 14.24729919 17.06025452 14.24729919 20.12025452 C22.49729919 20.12025452 30.74729919 20.12025452 39.24729919 20.12025452 C39.24729919 23.42025452 39.24729919 26.72025452 39.24729919 30.12025452 C30.99729919 30.12025452 22.74729919 30.12025452 14.24729919 30.12025452 C14.24729919 33.75025452 14.24729919 37.38025452 14.24729919 41.12025452 C23.48729919 41.12025452 32.72729919 41.12025452 42.24729919 41.12025452 C42.24729919 45.08025452 42.24729919 49.04025452 42.24729919 53.12025452 C35.99933666 53.14489907 29.75140216 53.16308795 23.50340271 53.17518616 C21.37611905 53.1802275 19.24883888 53.18706043 17.12156677 53.19569397 C14.07102094 53.20776831 11.02052074 53.21348466 7.96995544 53.21791077 C6.53402794 53.22565269 6.53402794 53.22565269 5.0690918 53.23355103 C4.18825424 53.23362656 3.30741669 53.23370209 2.39988708 53.23377991 C1.23073509 53.23711082 1.23073509 53.23711082 0.03796387 53.24050903 C-1.75270081 53.12025452 -1.75270081 53.12025452 -2.75270081 52.12025452 C-2.85124503 50.52962142 -2.88068774 48.93463974 -2.88209534 47.34095764 C-2.8852475 46.32320251 -2.88839966 45.30544739 -2.89164734 44.2568512 C-2.88962311 43.14958679 -2.88759888 42.04232239 -2.88551331 40.90150452 C-2.88647003 39.77329285 -2.88742676 38.64508118 -2.88841248 37.48268127 C-2.88909448 35.09185226 -2.88723878 32.7010214 -2.8830719 30.31019592 C-2.87772396 26.63616301 -2.88301623 22.96225235 -2.88941956 19.28822327 C-2.88875878 16.97181674 -2.88747762 14.6554103 -2.88551331 12.33900452 C-2.88854965 10.67810791 -2.88854965 10.67810791 -2.89164734 8.98365784 C-2.88849518 7.96590271 -2.88534302 6.94814758 -2.88209534 5.89955139 C-2.88129974 4.99877869 -2.88050415 4.09800598 -2.87968445 3.16993713 C-2.72033142 0.5977702 -2.58227379 0.17717233 0 0 Z " fill="#FEFEFE" transform="translate(457.75270080566406,102.87974548339844)"/>
<path d="M0 0 C1.10794922 -0.0309375 1.10794922 -0.0309375 2.23828125 -0.0625 C8.89817035 -0.10948334 13.53455332 1.27536274 18.625 5.8125 C22.19108226 9.90300612 21.75 10.15238599 21.75 16.25 C16.8 16.25 11.85 16.25 6.75 16.25 C6.09 14.93 5.43 13.61 4.75 12.25 C2.46294169 11.10647084 1.15735238 11.14665561 -1.375 11.1875 C-3.293125 11.2184375 -3.293125 11.2184375 -5.25 11.25 C-5.25 12.9 -5.25 14.55 -5.25 16.25 C-4.67556152 16.41081055 -4.10112305 16.57162109 -3.50927734 16.73730469 C-0.87796254 17.48062594 1.74841205 18.24015258 4.375 19 C5.27863281 19.25265625 6.18226563 19.5053125 7.11328125 19.765625 C13.30050048 21.57211237 18.19809374 23.44290312 22.625 28.3125 C24.65527866 33.61378317 24.87451417 39.24129985 22.87109375 44.6015625 C20.05727764 49.56056515 16.93492837 51.97590861 11.75 54.25 C2.76433046 56.09926072 -8.00009226 56.92383886 -16.25 52.25 C-21.78459769 47.84856348 -23.20098575 43.06859262 -24.25 36.25 C-19.3 35.92 -14.35 35.59 -9.25 35.25 C-6.25 40.25 -6.25 40.25 -6.25 42.25 C-2.32703567 43.55765478 0.61002433 43.4471417 4.75 43.25 C7.03728734 41.41116119 7.03728734 41.41116119 6.875 38.625 C6.83375 37.84125 6.7925 37.0575 6.75 36.25 C1.25482402 33.69410419 -4.33770536 31.97321938 -10.1640625 30.3125 C-15.62126131 28.43356573 -18.81599256 26.39321445 -21.51953125 21.140625 C-22.96671886 17.39496294 -22.93257729 14.16848646 -21.58984375 10.39453125 C-19.16570739 5.47279985 -16.14692496 3.56490998 -11.25 1.25 C-7.48025424 -0.00658192 -3.92827808 0.02686002 0 0 Z " fill="#FEFEFB" transform="translate(530.25,101.75)"/>
<path d="M0 0 C1.28970703 -0.0299707 1.28970703 -0.0299707 2.60546875 -0.06054688 C8.54941654 -0.05603705 13.2055488 0.98174191 18.125 4.4375 C21.05835989 7.97257474 22.58752091 10.86892773 23.125 15.4375 C17.81583761 16.61516875 12.53661444 17.24146189 7.125 16.4375 C5.375 14 5.375 14 4.125 11.4375 C0.66524142 10.35982871 0.66524142 10.35982871 -2.875 10.4375 C-3.865 11.0975 -4.855 11.7575 -5.875 12.4375 C-5.875 13.7575 -5.875 15.0775 -5.875 16.4375 C-4.1734375 16.80101562 -4.1734375 16.80101562 -2.4375 17.171875 C18.43426961 21.76222983 18.43426961 21.76222983 23.125 28.4375 C25.41088341 34.07828692 25.48132757 38.70729353 23.23828125 44.359375 C20.88864831 48.74535648 18.0743328 51.59084949 13.5078125 53.57421875 C4.70379816 55.82097068 -8.10877907 56.39423513 -16.20703125 51.8359375 C-20.43664626 48.28979658 -22.69769794 44.42328308 -23.1875 38.9375 C-23.084375 38.1125 -22.98125 37.2875 -22.875 36.4375 C-19.99084117 34.99542059 -17.45778472 35.34355113 -14.25 35.375 C-13.06148438 35.38402344 -11.87296875 35.39304688 -10.6484375 35.40234375 C-9.73320312 35.41394531 -8.81796875 35.42554688 -7.875 35.4375 C-7.441875 36.38625 -7.00875 37.335 -6.5625 38.3125 C-5.08197799 41.63791937 -5.08197799 41.63791937 -1.875 43.4375 C2.19990752 43.77707563 3.65501271 43.75082486 7.125 41.4375 C7.54166667 38.9375 7.54166667 38.9375 7.125 36.4375 C4.2652657 33.5777657 0.80780177 33.17961415 -3 32.1875 C-10.55984851 30.0874103 -16.87464039 27.87803222 -21.4375 21.125 C-22.19554493 16.46843829 -22.18595834 11.86539485 -19.8984375 7.62890625 C-14.51908194 0.67044954 -8.17524751 -0.06681109 0 0 Z " fill="#FEFEFC" transform="translate(368.875,163.5625)"/>
<path d="M0 0 C16.5 0 33 0 50 0 C50 4.29 50 8.58 50 13 C44.39 13 38.78 13 33 13 C33 26.2 33 39.4 33 53 C27.72 53 22.44 53 17 53 C17 39.8 17 26.6 17 13 C11.39 13 5.78 13 0 13 C0 8.71 0 4.42 0 0 Z " fill="#FEFEFE" transform="translate(559,103)"/>
<path d="M0 0 C0.70253906 0.00386719 1.40507812 0.00773438 2.12890625 0.01171875 C2.83144531 0.00785156 3.53398437 0.00398437 4.2578125 0 C9.50229247 0.01010497 9.50229247 0.01010497 10.62890625 1.13671875 C10.71755833 4.02105695 10.74411921 6.88134033 10.7265625 9.765625 C10.72514755 10.6298558 10.7237326 11.49408661 10.72227478 12.38450623 C10.71665864 15.15611167 10.70410344 17.92763755 10.69140625 20.69921875 C10.68639333 22.57356655 10.68183006 24.4479156 10.67773438 26.32226562 C10.66753306 30.92713896 10.64796092 35.53183935 10.62890625 40.13671875 C18.87890625 40.13671875 27.12890625 40.13671875 35.62890625 40.13671875 C35.62890625 44.75671875 35.62890625 49.37671875 35.62890625 54.13671875 C29.80819003 54.16136513 23.98750391 54.17955305 18.16674805 54.19165039 C16.18497184 54.19669142 14.20319936 54.20352413 12.22143555 54.2121582 C9.37938516 54.2242339 6.53738378 54.2299492 3.6953125 54.234375 C2.357817 54.24211693 2.357817 54.24211693 0.99330139 54.25001526 C-1.12849976 54.25021052 -3.25020155 54.19881905 -5.37109375 54.13671875 C-7.02517831 52.48263419 -6.4985173 50.54117983 -6.50048828 48.265625 C-6.50364044 47.22784912 -6.5067926 46.19007324 -6.51004028 45.12084961 C-6.50801605 43.99171143 -6.50599182 42.86257324 -6.50390625 41.69921875 C-6.50534134 39.97360718 -6.50534134 39.97360718 -6.50680542 38.21313477 C-6.50748744 35.77522731 -6.50563165 33.33731805 -6.50146484 30.89941406 C-6.49611692 27.15295357 -6.50140914 23.40661298 -6.5078125 19.66015625 C-6.50715172 17.29817682 -6.50587057 14.93619746 -6.50390625 12.57421875 C-6.50593048 11.44508057 -6.50795471 10.31594238 -6.51004028 9.15258789 C-6.50688812 8.11481201 -6.50373596 7.07703613 -6.50048828 6.0078125 C-6.49969269 5.0892749 -6.49889709 4.1707373 -6.49807739 3.22436523 C-6.24203037 -0.98511924 -3.60756571 0.00695099 0 0 Z " fill="#FEFEF9" transform="translate(461.37109375,163.86328125)"/>
<path d="M0 0 C2.64590014 -0.02684679 5.29153096 -0.04676357 7.9375 -0.0625 C8.69224609 -0.07087891 9.44699219 -0.07925781 10.22460938 -0.08789062 C12.14994313 -0.09652441 14.07535581 -0.05224333 16 0 C17 1 17 1 17.11352539 4.69360352 C17.11336624 6.33871292 17.10766988 7.98382731 17.09765625 9.62890625 C17.0962413 10.49313705 17.09482635 11.35736786 17.09336853 12.24778748 C17.08775239 15.01939292 17.07519719 17.7909188 17.0625 20.5625 C17.05748708 22.4368478 17.05292381 24.31119685 17.04882812 26.18554688 C17.03777772 30.79039544 17.0205023 35.39518421 17 40 C17.72179443 39.99476318 18.44358887 39.98952637 19.18725586 39.98413086 C22.43732849 39.96342642 25.68738728 39.95036082 28.9375 39.9375 C30.07380859 39.92912109 31.21011719 39.92074219 32.38085938 39.91210938 C33.46044922 39.90888672 34.54003906 39.90566406 35.65234375 39.90234375 C37.15269165 39.89448853 37.15269165 39.89448853 38.68334961 39.88647461 C41 40 41 40 42 41 C42.09873816 42.99799572 42.12971799 44.99957158 42.125 47 C42.12886719 48.6396875 42.12886719 48.6396875 42.1328125 50.3125 C42 53 42 53 41 54 C38.0546443 54.10110353 35.1332244 54.13969279 32.1875 54.1328125 C30.86141724 54.13424759 30.86141724 54.13424759 29.50854492 54.13571167 C27.63557871 54.13639351 25.76261014 54.13453893 23.88964844 54.13037109 C21.01231612 54.12502289 18.13513992 54.13031593 15.2578125 54.13671875 C13.44270799 54.13605797 11.62760357 54.13477681 9.8125 54.1328125 C8.94584717 54.13483673 8.07919434 54.13686096 7.1862793 54.13894653 C1.11495009 54.11495009 1.11495009 54.11495009 0 53 C-0.09346915 51.34261557 -0.11744977 49.68125356 -0.11352539 48.02124023 C-0.11344986 46.96021591 -0.11337433 45.89919159 -0.11329651 44.80601501 C-0.10813522 43.651866 -0.10297394 42.49771698 -0.09765625 41.30859375 C-0.0962413 40.13361832 -0.09482635 38.95864288 -0.09336853 37.74806213 C-0.08774992 33.97784936 -0.07519426 30.20769496 -0.0625 26.4375 C-0.0574874 23.88867273 -0.05292408 21.33984453 -0.04882812 18.79101562 C-0.03777444 12.52732367 -0.02101821 6.26366601 0 0 Z " fill="#FEFDF5" transform="translate(505,164)"/>
<path d="M0 0 C-0.99 0.33 -1.98 0.66 -3 1 C-3 1.99 -3 2.98 -3 4 C-2.443125 4.00257812 -1.88625 4.00515625 -1.3125 4.0078125 C5.26831849 4.34129992 9.44041912 6.21100624 14 11 C20 19.35394456 20 19.35394456 20 23 C19.01 22.67 18.02 22.34 17 22 C16.8453125 21.0409375 16.8453125 21.0409375 16.6875 20.0625 C16.460625 19.381875 16.23375 18.70125 16 18 C13.12935917 16.73751094 13.12935917 16.73751094 10 16 C9.01 15.67 8.02 15.34 7 15 C6.505 11.535 6.505 11.535 6 8 C3.69 8 1.38 8 -1 8 C-1.268125 8.94875 -1.53625 9.8975 -1.8125 10.875 C-3 14 -3 14 -6 16 C-6.99 15.154375 -7.98 14.30875 -9 13.4375 C-15.29082273 8.66240086 -22.74441798 5.97619748 -30 3 C-30 2.34 -30 1.68 -30 1 C-28.54980469 1.01740234 -28.54980469 1.01740234 -27.0703125 1.03515625 C-20.38141324 1.08151496 -13.79710992 1.05858231 -7.1484375 0.21875 C-4.75375061 -0.02507267 -2.40542362 -0.03376033 0 0 Z " fill="#662E91FF" transform="translate(202,80)"/>
<path d="M0 0 C3.37498158 -0.02922646 6.74993021 -0.04687468 10.125 -0.0625 C11.55199219 -0.07506836 11.55199219 -0.07506836 13.0078125 -0.08789062 C17.79018487 -0.10449608 22.29771569 -0.00537055 27 1 C27 1.33 27 1.66 27 2 C26.17757812 2.21914062 25.35515625 2.43828125 24.5078125 2.6640625 C17.7218859 4.59170447 12.00144346 6.81354103 6.12109375 10.73046875 C4.04905748 11.97063779 2.35867661 12.55607674 0 13 C-1 10 -1 10 0 7 C-7.25067946 7.63602451 -13.2817178 9.19664295 -19 14 C-19 10 -19 10 -17.56640625 8.3671875 C-12.11288777 4.3062829 -6.89470663 2 0 2 C0 1.34 0 0.68 0 0 Z " fill="#662E91FF" transform="translate(809,81)"/>
<path d="M0 0 C2.10388569 -0.05402274 4.20816714 -0.09280256 6.3125 -0.125 C8.07013672 -0.15980469 8.07013672 -0.15980469 9.86328125 -0.1953125 C13 0 13 0 16 2 C16.3125 5 16.3125 5 16 8 C14 10 14 10 10.7421875 10.1953125 C9.46601563 10.17210937 8.18984375 10.14890625 6.875 10.125 C4.95300781 10.09792969 4.95300781 10.09792969 2.9921875 10.0703125 C1.51105469 10.03550781 1.51105469 10.03550781 0 10 C0 6.7 0 3.4 0 0 Z " fill="#662E91FF" transform="translate(414,134)"/>
<path d="M0 0 C11.25 -0.40178571 11.25 -0.40178571 15 3 C14.8125 5.875 14.8125 5.875 14 9 C9.84598002 11.85588874 4.8404876 11.14449217 0 11 C0 7.37 0 3.74 0 0 Z " fill="#662E91FF" transform="translate(625,175)"/>
<path d="M0 0 C1.95803507 -0.05389087 3.91648909 -0.09274217 5.875 -0.125 C7.51082031 -0.15980469 7.51082031 -0.15980469 9.1796875 -0.1953125 C12 0 12 0 14 2 C14.375 4.4375 14.375 4.4375 14 7 C12.5625 8.8125 12.5625 8.8125 10 10 C6.97793975 10.29058272 4.02069437 10.31861279 1 10 C0 9 0 9 -0.09765625 6.93359375 C-0.08605469 6.10988281 -0.07445312 5.28617187 -0.0625 4.4375 C-0.05347656 3.61121094 -0.04445313 2.78492187 -0.03515625 1.93359375 C-0.02355469 1.29550781 -0.01195312 0.65742187 0 0 Z " fill="#662E91FF" transform="translate(414,114)"/>
<path d="M0 0 C-0.99 0.33 -1.98 0.66 -3 1 C-3 1.66 -3 2.32 -3 3 C-5 5 -5 5 -7.1640625 5.1953125 C-8.38222656 5.16050781 -8.38222656 5.16050781 -9.625 5.125 C-10.44226563 5.10695313 -11.25953125 5.08890625 -12.1015625 5.0703125 C-12.72804687 5.04710938 -13.35453125 5.02390625 -14 5 C-13.67 5.33 -13.34 5.66 -13 6 C-12.63837971 7.32594105 -12.30271961 8.65938457 -12 10 C-16.21775732 8.64474464 -20.29421322 7.09799886 -24.375 5.375 C-25.43460938 4.92898437 -26.49421875 4.48296875 -27.5859375 4.0234375 C-28.38257813 3.68570313 -29.17921875 3.34796875 -30 3 C-30 2.34 -30 1.68 -30 1 C-28.54980469 1.01740234 -28.54980469 1.01740234 -27.0703125 1.03515625 C-20.38141324 1.08151496 -13.79710992 1.05858231 -7.1484375 0.21875 C-4.75375061 -0.02507267 -2.40542362 -0.03376033 0 0 Z " fill="#DFD4D4" transform="translate(202,80)"/>
    <path d="M0 0 C3.37498158 -0.02922646 6.74993021 -0.04687468 10.125 -0.0625 C11.55199219 -0.07506836 11.55199219 -0.07506836 13.0078125 -0.08789062 C17.79018487 -0.10449608 22.29771569 -0.00537055 27 1 C27 1.33 27 1.66 27 2 C26.17757812 2.21914062 25.35515625 2.43828125 24.5078125 2.6640625 C17.7218859 4.59170447 12.00144346 6.81354103 6.12109375 10.73046875 C4.04905748 11.97063779 2.35867661 12.55607674 0 13 C-1 10 -1 10 0 7 C-7.25067946 7.63602451 -13.2817178 9.19664295 -19 14 C-19 10 -19 10 -17.56640625 8.3671875 C-12.11288777 4.3062829 -6.89470663 2 0 2 C0 1.34 0 0.68 0 0 Z " fill="#662E91FF" transform="translate(809,81)"/>
<path d="M0 0 C3.37498158 -0.02922646 6.74993021 -0.04687468 10.125 -0.0625 C11.55199219 -0.07506836 11.55199219 -0.07506836 13.0078125 -0.08789062 C17.79018487 -0.10449608 22.29771569 -0.00537055 27 1 C27 1.33 27 1.66 27 2 C26.09636719 2.27714844 25.19273437 2.55429688 24.26171875 2.83984375 C23.08222656 3.20207031 21.90273438 3.56429687 20.6875 3.9375 C18.92986328 4.47697266 18.92986328 4.47697266 17.13671875 5.02734375 C15.08446023 5.66372279 13.03839863 6.32053379 11 7 C10.67 6.525625 10.34 6.05125 10 5.5625 C6.90186733 3.14208385 3.87973208 3.31801083 0 3 C0 2.01 0 1.02 0 0 Z " fill="#662E91FF" transform="translate(809,81)"/>
<path d="M0 0 C4.17542434 0.50105092 6.1460889 0.91455119 8.80078125 4.2890625 C13 11.24433174 13 11.24433174 13 14 C12.01 13.67 11.02 13.34 10 13 C9.896875 12.360625 9.79375 11.72125 9.6875 11.0625 C9.460625 10.381875 9.23375 9.70125 9 9 C6.12935917 7.73751094 6.12935917 7.73751094 3 7 C2.01 6.67 1.02 6.34 0 6 C-0.38218767 4.34385343 -0.71395102 2.67542976 -1 1 C-0.67 0.67 -0.34 0.34 0 0 Z " fill="#662E91FF" transform="translate(209,89)"/>
<path d="M0 0 C0.99 0.33 1.98 0.66 3 1 C1.8125 3.4375 1.8125 3.4375 0 6 C-2.5625 6.6875 -2.5625 6.6875 -5 7 C-5.66 7.66 -6.32 8.32 -7 9 C-7 8.34 -7 7.68 -7 7 C-7.66 7 -8.32 7 -9 7 C-9.33 9.31 -9.66 11.62 -10 14 C-10.99 14.33 -11.98 14.66 -13 15 C-12.43697042 11.05879291 -11.3208055 8.2491277 -9 5 C-8.34 5 -7.68 5 -7 5 C-6.34 4.34 -5.68 3.68 -5 3 C-2.5625 1.3125 -2.5625 1.3125 0 0 Z " fill="#662E91FF" transform="translate(797,89)"/>
<path d="M0 0 C0.99 0.66 1.98 1.32 3 2 C3.4375 4.4375 3.4375 4.4375 3 7 C1 8.8125 1 8.8125 -1 10 C-2.5625 8.75 -2.5625 8.75 -4 7 C-3.6875 4.8125 -3.6875 4.8125 -3 3 C-2.34 3 -1.68 3 -1 3 C-0.67 2.01 -0.34 1.02 0 0 Z " fill="#ECEAEA" transform="translate(197,86)"/>
<path d="M0 0 C0 0.66 0 1.32 0 2 C-1.86328125 3.65625 -1.86328125 3.65625 -4.3125 5.5 C-5.51326172 6.41265625 -5.51326172 6.41265625 -6.73828125 7.34375 C-8.46143275 8.60560879 -10.22292703 9.81528469 -12 11 C-12 9.68 -12 8.36 -12 7 C-10.3203125 5.33203125 -10.3203125 5.33203125 -8.125 3.8125 C-7.40570312 3.30332031 -6.68640625 2.79414062 -5.9453125 2.26953125 C-2.46769231 0 -2.46769231 0 0 0 Z " fill="#662E91FF" transform="translate(802,84)"/>
<path d="M0 0 C0.66 0.33 1.32 0.66 2 1 C1.01 2.485 1.01 2.485 0 4 C0.33 4.66 0.66 5.32 1 6 C-2.22515763 7.73662334 -5.51329166 8.8905928 -9 10 C-8.06409496 8.8944811 -7.12620142 7.79064547 -6.1875 6.6875 C-5.66542969 6.07261719 -5.14335938 5.45773438 -4.60546875 4.82421875 C-3.12827531 3.14575321 -1.59960869 1.56117966 0 0 Z " fill="#662E91FF" transform="translate(735,211)"/>
<path d="M0 0 C0.66 0.33 1.32 0.66 2 1 C-1.3 4.3 -4.6 7.6 -8 11 C-8.66 10.67 -9.32 10.34 -10 10 C-6.92118304 6.12948725 -3.99926986 2.97088618 0 0 Z " fill="#662E91FF" transform="translate(118,92)"/>
<path d="M0 0 C2.97 0 5.94 0 9 0 C9 0.99 9 1.98 9 3 C6.69 3.33 4.38 3.66 2 4 C2 3.01 2 2.02 2 1 C1.34 0.67 0.68 0.34 0 0 Z " fill="#662E91FF" transform="translate(800,80)"/>
<path d="M0 0 C0 0.66 0 1.32 0 2 C-2.5 3.5 -2.5 3.5 -5 5 C-5 5.66 -5 6.32 -5 7 C-5.66 7 -6.32 7 -7 7 C-7 6.34 -7 5.68 -7 5 C-8.98 5 -10.96 5 -13 5 C-3.38461538 0 -3.38461538 0 0 0 Z " fill="#662E91FF" transform="translate(710,232)"/>
<path d="M0 0 C3.96 0 7.92 0 12 0 C12 0.66 12 1.32 12 2 C10.56359829 2.19573608 9.12580496 2.38127816 7.6875 2.5625 C6.88699219 2.66691406 6.08648437 2.77132812 5.26171875 2.87890625 C3 3 3 3 0 2 C0 1.34 0 0.68 0 0 Z " fill="#662E91FF" transform="translate(172,81)"/>
<path d="M0 0 C-0.99 0.33 -1.98 0.66 -3 1 C-3.33 1.99 -3.66 2.98 -4 4 C-6.64 3.34 -9.28 2.68 -12 2 C-12 1.67 -12 1.34 -12 1 C-3.96428571 -1.27678571 -3.96428571 -1.27678571 0 0 Z " fill="#662E91FF" transform="translate(188,83)"/>
<path d="M0 0 C3.37503669 1.1858237 5.64722731 2.27573689 8 5 C6.02 5 4.04 5 2 5 C1.34 3.35 0.68 1.7 0 0 Z " fill="#662E91FF" transform="translate(206,85)"/>
<path d="M0 0 C0.66 0.33 1.32 0.66 2 1 C1.67 2.98 1.34 4.96 1 7 C0.01 7 -0.98 7 -2 7 C-1.125 2.25 -1.125 2.25 0 0 Z " fill="#662E91FF" transform="translate(748,185)"/>
<path d="M0 0 C1 2 1 2 0.44140625 3.9453125 C0.15136719 4.66460937 -0.13867188 5.38390625 -0.4375 6.125 C-0.72496094 6.84945312 -1.01242187 7.57390625 -1.30859375 8.3203125 C-1.53675781 8.87460938 -1.76492188 9.42890625 -2 10 C-2.66 10 -3.32 10 -4 10 C-3.43454163 6.04179141 -2.19097652 3.3340947 0 0 Z " fill="#F6EDE8" transform="translate(788,94)"/>
<path d="M0 0 C2.6855594 2.6855594 3.06049974 5.37621328 4 9 C2.68 8.34 1.36 7.68 0 7 C0 4.69 0 2.38 0 0 Z " fill="#662E91FF" transform="translate(225,111)"/>
</svg>
