<?xml version="1.0" standalone="no"?>
<!DOCTYPE svg PUBLIC "-//W3C//DTD SVG 20010904//EN"
 "http://www.w3.org/TR/2001/REC-SVG-20010904/DTD/svg10.dtd">
<svg version="1.0" xmlns="http://www.w3.org/2000/svg"
 width="512.000000pt" height="512.000000pt" viewBox="0 0 512.000000 512.000000"
 preserveAspectRatio="xMidYMid meet">

<g transform="translate(0.000000,512.000000) scale(0.100000,-0.100000)"
fill="#000000" stroke="none">
<path d="M650 4989 c-260 -67 -455 -264 -520 -524 -20 -79 -20 -107 -18 -1930
l3 -1850 27 -80 c39 -114 92 -199 178 -285 86 -86 171 -139 285 -178 l80 -27
1845 -3 c2061 -3 1917 -8 2075 68 194 93 332 263 385 474 20 78 20 112 20
1906 0 1794 0 1828 -20 1906 -53 211 -191 381 -385 474 -157 75 -13 70 -2052
69 -1776 0 -1830 -1 -1903 -20z m3731 -199 c196 -37 372 -213 409 -409 5 -29
10 -168 10 -307 l0 -254 -274 0 -274 0 -4 168 c-4 178 -9 200 -55 221 -31 14
-89 14 -115 0 -38 -20 -48 -68 -48 -234 l0 -155 -209 0 -209 0 -4 168 c-4 178
-9 200 -55 221 -31 14 -89 14 -115 0 -38 -20 -48 -68 -48 -234 l0 -155 -200 0
-200 0 0 150 c0 163 -9 204 -51 234 -30 20 -93 21 -124 0 -37 -24 -45 -65 -45
-230 l0 -154 -210 0 -210 0 0 150 c0 163 -9 204 -51 234 -30 20 -93 21 -124 0
-37 -24 -45 -65 -45 -230 l0 -154 -200 0 -200 0 0 155 c0 166 -10 214 -48 234
-26 14 -84 14 -115 0 -46 -21 -51 -43 -55 -221 l-4 -168 -209 0 -209 0 0 155
c0 166 -10 214 -48 234 -26 14 -84 14 -115 0 -46 -21 -51 -43 -55 -221 l-4
-168 -274 0 -274 0 0 254 c0 139 5 278 10 307 36 192 212 371 401 408 64 13
3583 14 3650 1z m419 -2589 c0 -911 -4 -1427 -10 -1462 -37 -196 -213 -372
-409 -409 -74 -14 -3568 -14 -3642 0 -196 37 -372 213 -409 409 -6 35 -10 551
-10 1462 l0 1408 2240 0 2240 0 0 -1408z"/>
<path d="M2820 2155 l-725 -725 -247 247 -248 248 -70 -70 c-38 -38 -70 -74
-70 -80 0 -5 127 -137 283 -291 303 -303 307 -306 386 -284 29 8 178 152 796
770 418 419 761 762 762 763 1 2 -30 35 -70 75 l-72 72 -725 -725z"/>
</g>
</svg>
