<?xml version="1.0" standalone="no"?>
<!DOCTYPE svg PUBLIC "-//W3C//DTD SVG 20010904//EN"
 "http://www.w3.org/TR/2001/REC-SVG-20010904/DTD/svg10.dtd">
<svg version="1.0" xmlns="http://www.w3.org/2000/svg"
 width="512.000000pt" height="512.000000pt" viewBox="0 0 512.000000 512.000000"
 preserveAspectRatio="xMidYMid meet">

<g transform="translate(0.000000,512.000000) scale(0.100000,-0.100000)"
fill="#000000" stroke="none">
<path d="M1695 4786 c-72 -33 -95 -83 -95 -211 l0 -93 -237 -4 c-200 -4 -250
-8 -314 -26 -377 -102 -650 -397 -714 -771 -13 -76 -15 -258 -13 -1322 3
-1233 3 -1234 25 -1310 88 -309 296 -547 574 -658 166 -66 163 -66 716 -66
491 0 502 0 529 21 53 39 69 71 69 134 0 63 -16 95 -69 134 -27 20 -42 21
-519 26 -465 5 -495 7 -554 27 -167 56 -309 177 -382 324 -74 150 -71 86 -71
1409 0 1002 3 1196 15 1255 38 182 170 352 335 434 121 59 189 71 417 71 l191
0 4 -109 c3 -118 12 -141 72 -185 39 -29 133 -29 172 0 60 44 69 67 72 184 l4
109 428 3 c415 3 429 4 456 24 53 39 69 71 69 134 0 63 -16 95 -69 134 -27 20
-41 21 -456 24 l-428 3 -4 109 c-3 117 -12 140 -70 183 -34 25 -113 32 -153
13z"/>
<path d="M3295 4786 c-41 -18 -83 -69 -90 -109 -3 -18 -5 -190 -3 -384 3 -337
4 -353 24 -379 39 -53 71 -69 134 -69 63 0 95 16 134 69 18 23 22 45 24 137
l4 109 191 0 c228 0 296 -12 416 -71 148 -73 269 -216 324 -382 17 -53 21 -98
26 -314 6 -233 7 -254 27 -279 39 -53 71 -69 134 -69 63 0 95 16 134 69 20 26
21 41 21 284 0 211 -3 270 -18 332 -89 379 -395 669 -774 735 -56 10 -153 15
-283 15 l-198 0 -4 109 c-3 118 -12 141 -70 184 -33 25 -113 32 -153 13z"/>
<path d="M1215 3346 c-67 -29 -105 -106 -91 -181 9 -47 59 -102 104 -115 26
-8 449 -10 1354 -8 1312 3 1317 3 1344 24 53 39 69 71 69 134 0 63 -16 95 -69
134 -27 21 -31 21 -1354 23 -1088 2 -1332 0 -1357 -11z"/>
<path d="M1280 2547 c-49 -16 -133 -102 -148 -153 -28 -94 -8 -169 63 -239
101 -102 229 -102 330 0 102 101 102 229 0 330 -70 71 -152 91 -245 62z"/>
<path d="M3500 2545 c-251 -42 -501 -181 -659 -365 -83 -96 -116 -148 -171
-263 -56 -118 -92 -240 -93 -312 -3 -161 189 -223 286 -93 10 14 27 62 38 107
47 201 170 376 347 492 134 88 258 124 432 124 167 0 297 -36 422 -116 l53
-34 -107 -5 c-87 -4 -112 -9 -134 -26 -53 -39 -69 -71 -69 -134 0 -63 16 -95
69 -134 26 -20 40 -21 326 -21 286 0 300 1 326 21 15 11 37 33 48 48 20 26 21
40 21 326 0 286 -1 300 -21 326 -39 53 -71 69 -134 69 -90 0 -149 -53 -158
-144 l-5 -51 -26 19 c-48 34 -190 101 -268 127 -156 51 -363 66 -523 39z"/>
<path d="M1280 1587 c-49 -16 -133 -102 -148 -153 -28 -94 -8 -169 63 -239
101 -102 229 -102 330 0 102 101 102 229 0 330 -70 71 -152 91 -245 62z"/>
<path d="M4565 1426 c-43 -18 -83 -69 -95 -119 -52 -217 -133 -357 -277 -478
-260 -221 -652 -249 -935 -68 l-53 34 107 5 c87 4 112 9 134 26 53 39 69 71
69 134 0 63 -16 95 -69 134 -26 20 -40 21 -326 21 -286 0 -300 -1 -326 -21
-15 -11 -37 -33 -48 -48 -20 -26 -21 -40 -21 -326 0 -286 1 -300 21 -326 39
-53 71 -69 134 -69 90 0 149 53 158 144 l5 51 26 -19 c14 -10 63 -37 108 -60
262 -131 549 -155 837 -70 103 31 272 121 365 195 88 71 182 174 239 263 87
136 164 343 165 446 2 118 -113 197 -218 151z"/>
</g>
</svg>
