<?xml version="1.0" standalone="no"?>
<!DOCTYPE svg PUBLIC "-//W3C//DTD SVG 20010904//EN"
 "http://www.w3.org/TR/2001/REC-SVG-20010904/DTD/svg10.dtd">
<svg version="1.0" xmlns="http://www.w3.org/2000/svg"
 width="512.000000pt" height="512.000000pt" viewBox="0 0 512.000000 512.000000"
 preserveAspectRatio="xMidYMid meet">

<g transform="translate(0.000000,512.000000) scale(0.100000,-0.100000)"
fill="#000000" stroke="none">
<path d="M1367 5106 c-64 -24 -115 -63 -144 -113 -25 -43 -29 -60 -33 -158
l-5 -110 -330 -5 c-322 -5 -331 -6 -374 -28 -64 -35 -127 -104 -150 -168 -21
-54 -21 -70 -21 -1039 l0 -984 26 -20 c35 -28 77 -26 111 3 l28 24 3 506 3
506 2079 0 2080 0 0 -1229 0 -1228 -23 -33 c-45 -67 -60 -70 -364 -70 -272 0
-272 0 -299 -24 -39 -33 -39 -89 0 -123 l29 -24 296 3 296 3 57 28 c67 33 121
90 154 162 l24 52 -2 1734 -3 1734 -23 43 c-29 55 -89 115 -144 144 -42 22
-53 23 -373 28 l-330 5 -5 105 c-6 117 -23 161 -82 216 -61 58 -92 68 -220 72
-134 5 -184 -7 -248 -58 -62 -49 -91 -120 -97 -240 l-6 -100 -721 2 -721 3 -5
105 c-6 117 -23 161 -82 216 -61 59 -92 68 -223 71 -85 2 -131 -1 -158 -11z
m264 -185 l29 -29 0 -252 0 -252 -29 -29 c-28 -28 -34 -29 -116 -29 -86 0
-119 9 -142 39 -18 23 -18 519 0 542 23 30 53 38 140 39 85 0 90 -1 118 -29z
m2100 0 l29 -29 0 -252 0 -252 -29 -29 c-28 -28 -34 -29 -116 -29 -89 0 -137
14 -149 45 -3 9 -6 130 -6 269 0 312 -3 305 153 306 85 0 90 -1 118 -29z
m-2541 -466 c0 -139 34 -207 132 -261 51 -28 58 -29 188 -29 151 0 183 10 247
77 54 56 73 111 73 216 l0 92 724 0 723 0 6 -96 c7 -122 37 -189 106 -239 65
-48 111 -58 243 -53 126 4 167 19 225 80 54 56 73 111 73 216 l0 92 308 0
c339 0 339 0 383 -66 18 -27 19 -54 19 -411 l0 -383 -2080 0 -2081 0 3 388 c3
369 4 388 23 414 44 57 43 57 378 58 l307 0 0 -95z"/>
<path d="M2345 2604 c-414 -72 -773 -339 -958 -709 -86 -174 -126 -331 -133
-535 -12 -291 58 -536 223 -784 113 -170 305 -341 484 -432 286 -144 620 -180
931 -100 572 149 978 674 978 1265 0 496 -283 953 -728 1175 -103 52 -260 102
-372 121 -116 18 -317 18 -425 -1z m406 -170 c613 -105 1033 -690 934 -1300
-78 -480 -436 -849 -920 -945 -87 -17 -329 -18 -410 -1 -244 52 -441 157 -606
324 -167 168 -275 382 -314 618 -124 767 550 1435 1316 1304z"/>
<path d="M1979 1891 c-56 -57 -54 -60 216 -331 l245 -245 -231 -230 c-227
-226 -259 -264 -259 -304 0 -30 41 -70 78 -77 33 -7 39 -1 283 242 l249 248
249 -248 c244 -243 250 -249 283 -242 37 7 78 47 78 77 0 11 -5 30 -11 42 -6
12 -115 126 -242 254 l-230 232 234 241 c129 133 238 252 244 266 19 51 -44
114 -101 100 -20 -5 -105 -83 -267 -244 l-237 -237 -233 232 c-127 127 -242
236 -254 242 -36 18 -63 13 -94 -18z"/>
<path d="M332 2227 c-20 -21 -22 -34 -22 -133 1 -118 7 -136 54 -154 20 -7 36
-6 61 4 44 19 58 66 54 174 -4 68 -8 84 -28 106 -32 34 -88 36 -119 3z"/>
<path d="M334 1705 l-25 -25 3 -333 c3 -324 4 -333 26 -375 35 -66 88 -119
150 -149 l57 -28 296 -3 296 -3 29 24 c36 31 39 87 6 120 -22 21 -29 22 -310
27 -280 5 -288 6 -320 28 -56 41 -57 42 -62 380 l-5 314 -28 24 c-37 32 -81
31 -113 -1z"/>
</g>
</svg>
