<?xml version="1.0" standalone="no"?>
<!DOCTYPE svg PUBLIC "-//W3C//DTD SVG 20010904//EN"
 "http://www.w3.org/TR/2001/REC-SVG-20010904/DTD/svg10.dtd">
<svg version="1.0" xmlns="http://www.w3.org/2000/svg"
 width="50.000000pt" height="50.000000pt" viewBox="0 0 50.000000 50.000000"
 preserveAspectRatio="xMidYMid meet">

<g transform="translate(0.000000,50.000000) scale(0.100000,-0.100000)"
fill="#042de3" stroke="none">
<path d="M37 434 c-4 -4 -7 -90 -7 -191 l0 -183 136 0 c132 0 137 -1 160 -25
75 -81 208 -1 164 99 -8 18 -16 87 -19 166 l-6 135 -211 3 c-115 1 -213 -1
-217 -4z m133 -49 l0 -35 -60 0 -60 0 0 35 0 35 60 0 60 0 0 -35z m140 0 l0
-35 -60 0 -60 0 0 35 0 35 60 0 60 0 0 -35z m140 0 l0 -35 -60 0 -60 0 0 35 0
35 60 0 60 0 0 -35z m-280 -90 l0 -35 -60 0 -60 0 0 35 0 35 60 0 60 0 0 -35z
m140 0 l0 -35 -60 0 -60 0 0 35 0 35 60 0 60 0 0 -35z m140 0 l0 -35 -60 0
-60 0 0 35 0 35 60 0 60 0 0 -35z m-280 -90 l0 -35 -60 0 -60 0 0 35 0 35 60
0 60 0 0 -35z m140 0 l0 -35 -60 0 -60 0 0 35 0 35 60 0 60 0 0 -35z m140 12
c0 -20 -5 -23 -42 -23 -24 0 -51 -3 -60 -8 -15 -7 -18 -3 -18 23 l0 31 60 0
c56 0 60 -2 60 -23z m5 -62 c50 -49 15 -135 -55 -135 -41 0 -80 39 -80 80 0
70 86 105 135 55z m-285 -40 l0 -35 -60 0 -60 0 0 35 0 35 60 0 60 0 0 -35z
m136 19 c-3 -9 -6 -24 -6 -35 0 -16 -7 -19 -55 -19 l-55 0 0 35 0 35 61 0 c52
0 60 -2 55 -16z"/>
<path d="M390 130 c0 -18 -6 -33 -15 -36 -8 -4 -15 -13 -15 -20 0 -12 4 -12
25 2 19 12 25 25 25 50 0 19 -4 34 -10 34 -5 0 -10 -14 -10 -30z"/>
</g>
</svg>
