<svg xmlns="http://www.w3.org/2000/svg" xmlns:xlink="http://www.w3.org/1999/xlink" version="1.1" x="0px" y="0px" viewBox="0 0 128 160" style="enable-background:new 0 0 128 128;" xml:space="preserve"><style type="text/css">
	.st0{fill:gray;}
</style><g><path d="M84.4,38.5c2.8,0,5.1-2.1,5.1-4.8c0-1.6-0.8-3-2-3.8v-5.2h11v-6.4h-11v-2.4c0-0.8-0.3-1.5-0.9-2C86,13.3,85.3,13,84.4,13   c-1.5,0-2.7,1-3,2.3c0,0.2-0.1,0.4-0.1,0.6v14c-1.2,0.9-2,2.3-2,3.8C79.3,36.3,81.6,38.5,84.4,38.5z"/><path d="M43.6,38.5c2.8,0,5.1-2.1,5.1-4.8c0-1.6-0.8-3-2-3.8v-5.2h11v-6.4h-11v-2.4c0-0.8-0.3-1.5-0.9-2c-0.6-0.5-1.3-0.8-2.2-0.8   c-1.5,0-2.7,1-3,2.3c0,0.2-0.1,0.4-0.1,0.6v14c-1.2,0.9-2,2.3-2,3.8C38.5,36.3,40.8,38.5,43.6,38.5z"/><path d="M23.2,38.5c2.8,0,5.1-2.1,5.1-4.8c0-1.6-0.8-3-2-3.8v-5.2h11v-6.4h-11v-2.4c0-0.8-0.3-1.5-0.9-2C24.8,13.3,24,13,23.2,13   c-1.5,0-2.7,1-3,2.3c0,0.2-0.1,0.4-0.1,0.6v14c-1.2,0.9-2,2.3-2,3.8C18.1,36.3,20.4,38.5,23.2,38.5z"/><path d="M113.3,18.3h-5.4v-2.4c0-0.8-0.3-1.5-0.9-2c-0.6-0.5-1.3-0.8-2.2-0.8c-1.5,0-2.7,1-3,2.3c0,0.2-0.1,0.4-0.1,0.6v14   c-1.2,0.9-2,2.3-2,3.8c0,2.6,2.3,4.8,5.1,4.8s5.1-2.1,5.1-4.8c0-1.6-0.8-3-2-3.8v-5.2h5.7c2.5,0,4.6,2.1,4.6,4.6v74.8   c0,2.5-2.1,4.6-4.6,4.6H14.4c-2.5,0-4.6-2.1-4.6-4.6V29.2c0-2.5,2.1-4.6,4.6-4.6h2.5v-6.4h-2.2C8.2,18.3,3,23.2,3,29.2v74.9   c0,6,5.2,10.9,11.7,10.9h98.7c6.4,0,11.7-4.9,11.7-10.9V29.2C125,23.2,119.8,18.3,113.3,18.3z"/><path d="M64,38.5c2.8,0,5.1-2.1,5.1-4.8c0-1.6-0.8-3-2-3.8v-5.2h11v-6.4h-11v-2.4c0-0.8-0.3-1.5-0.9-2C65.6,13.3,64.8,13,64,13   c-1.5,0-2.7,1-3,2.3c0,0.2-0.1,0.4-0.1,0.6v14c-1.2,0.9-2,2.3-2,3.8C58.9,36.3,61.2,38.5,64,38.5z"/><rect x="15.1" y="53" width="8.6" height="8.1"/><rect x="37.4" y="53" width="8.6" height="8.1"/><rect x="59.7" y="53" width="8.6" height="8.1"/><rect x="104.3" y="53" width="8.6" height="8.1"/><rect x="15.1" y="72.6" width="8.6" height="8.1"/><rect x="37.4" y="72.6" width="8.6" height="8.1"/><rect x="59.7" y="72.6" width="8.6" height="8.1"/><rect x="82" y="72.6" width="8.6" height="8.1"/><rect x="104.3" y="72.6" width="8.6" height="8.1"/><rect x="15.1" y="92.1" width="8.6" height="8.1"/><rect x="59.7" y="92.1" width="8.6" height="8.1"/><rect x="82" y="92.1" width="8.6" height="8.1"/><rect x="104.3" y="92.1" width="8.6" height="8.1"/><path d="M95,47.3c-0.5,0.6-1.1,1.2-1.6,1.8c-0.3,0.3-0.6,0.6-0.9,1c-0.1,0.1-0.2,0.3-0.4,0.4c-2,2.1-4,4.2-6,6.4   c-1.3-1.1-2.6-2-3.8-3c-0.5-0.4-1.2-0.6-1.6-0.1c-0.2,0.3-0.1,1,0.2,1.3c0.2,0.3,2.5,3.4,3.8,5.1c1,1.3,2.4,1.2,3.4,0   c0.5-0.7,1-1.4,1.5-2.1c1.4-2,2.8-4,4.2-6c0.4-0.5,0.7-1.1,1.1-1.6c0.5-0.7,1-1.4,1.5-2.1c0.3-0.5,0.6-1,0-1.4   C95.8,46.4,95.4,46.9,95,47.3z"/><path d="M86.3,67.3c6.1,0,11.1-4.7,11.1-10.4c0-1.9-0.6-3.8-1.6-5.3c-0.4,0.6-0.8,1.1-1.2,1.7c0.5,1.1,0.9,2.3,0.9,3.6   c0,4.7-4.1,8.6-9.2,8.6c-5,0-9.2-3.9-9.2-8.6c0-4.7,4.1-8.6,9.2-8.6c1.7,0,3.3,0.4,4.7,1.2c0.2-0.2,0.3-0.3,0.5-0.5   c0.3-0.3,0.5-0.6,0.8-0.9c-1.7-1-3.8-1.6-5.9-1.6c-6.1,0-11.1,4.7-11.1,10.4S80.2,67.3,86.3,67.3z"/><path d="M37.7,92.2c-0.5-0.4-1.2-0.6-1.6-0.1c-0.2,0.3-0.1,1,0.2,1.3c0.2,0.3,2.5,3.4,3.8,5.1c1,1.3,2.4,1.2,3.4,0   c0.5-0.7,1-1.4,1.5-2.1c1.4-2,2.8-4,4.2-6c0.4-0.5,0.7-1.1,1.1-1.6c0.5-0.7,1-1.4,1.5-2.1c0.3-0.5,0.6-1,0-1.4   c-0.6-0.5-1,0-1.4,0.3c-0.5,0.6-1.1,1.2-1.6,1.8c-0.3,0.3-0.6,0.6-0.9,1c-0.1,0.1-0.2,0.3-0.4,0.4c-2,2.1-4,4.2-6,6.4   C40.2,94.2,38.9,93.2,37.7,92.2z"/><path d="M30.6,95.4c0,5.7,5,10.4,11.1,10.4c6.1,0,11.1-4.7,11.1-10.4c0-1.9-0.6-3.8-1.6-5.3c-0.4,0.6-0.8,1.1-1.2,1.7   c0.5,1.1,0.9,2.3,0.9,3.6c0,4.7-4.1,8.6-9.2,8.6c-5,0-9.2-3.9-9.2-8.6s4.1-8.6,9.2-8.6c1.7,0,3.3,0.4,4.7,1.2   c0.2-0.2,0.3-0.3,0.5-0.5c0.3-0.3,0.5-0.6,0.8-0.9c-1.7-1-3.8-1.6-5.9-1.6C35.6,85,30.6,89.7,30.6,95.4z"/></g>
</svg>