<?xml version="1.0" standalone="no"?>
<!DOCTYPE svg PUBLIC "-//W3C//DTD SVG 20010904//EN"
 "http://www.w3.org/TR/2001/REC-SVG-20010904/DTD/svg10.dtd">
<svg version="1.0" xmlns="http://www.w3.org/2000/svg"
 width="40.000000pt" height="49.000000pt" viewBox="0 0 40.000000 49.000000"
 preserveAspectRatio="xMidYMid meet">

<g transform="translate(0.000000,49.000000) scale(0.100000,-0.100000)"
fill="#042de3" stroke="none">
<path d="M154 476 c-49 -22 -74 -61 -74 -117 0 -42 -3 -49 -20 -49 -11 0 -29
-9 -40 -20 -18 -18 -20 -33 -20 -133 0 -164 -9 -157 199 -157 211 0 201 -8
201 153 0 104 -2 119 -20 137 -11 11 -27 20 -35 20 -10 0 -15 10 -15 33 0 45
-29 98 -69 124 -39 26 -63 28 -107 9z m97 -22 c34 -17 59 -66 59 -114 l0 -30
-108 0 -108 0 6 48 c6 54 15 71 50 95 31 21 62 22 101 1z m123 -180 c8 -20 8
-218 0 -238 -5 -14 -30 -16 -168 -16 -113 0 -166 4 -174 12 -17 17 -17 229 0
246 8 8 61 12 174 12 138 0 163 -2 168 -16z"/>
<path d="M174 196 c-8 -22 11 -81 28 -84 11 -2 17 8 22 38 3 23 4 45 1 51 -9
14 -45 11 -51 -5z"/>
</g>
</svg>
