<?xml version="1.0" standalone="no"?>
<!DOCTYPE svg PUBLIC "-//W3C//DTD SVG 20010904//EN"
 "http://www.w3.org/TR/2001/REC-SVG-20010904/DTD/svg10.dtd">
<svg version="1.0" xmlns="http://www.w3.org/2000/svg"
 width="51.000000pt" height="52.000000pt" viewBox="0 0 51.000000 52.000000"
 preserveAspectRatio="xMidYMid meet">

<g transform="translate(0.000000,52.000000) scale(0.100000,-0.100000)"
fill="#163CF1" stroke="none">
<path d="M287 513 c-14 -13 -6 -20 34 -32 56 -17 124 -82 145 -139 21 -58 31
-70 39 -49 9 22 -30 106 -68 145 -44 46 -134 91 -150 75z"/>
<path d="M45 437 c-44 -44 -51 -75 -30 -139 46 -142 193 -277 319 -294 43 -6
48 -5 86 33 22 23 40 49 40 58 0 19 -90 115 -108 115 -6 0 -24 -12 -41 -26
-36 -30 -48 -26 -109 40 -47 51 -51 65 -22 91 11 10 20 29 20 41 0 28 -79 114
-104 114 -10 0 -33 -15 -51 -33z m125 -81 c0 -5 -12 -22 -26 -37 l-26 -28 21
-35 c28 -44 118 -126 139 -126 9 0 29 12 44 27 l28 27 40 -39 c22 -22 40 -44
40 -49 0 -22 -54 -66 -83 -66 -84 0 -230 117 -285 229 -41 82 -41 114 -1 153
l30 31 40 -39 c21 -21 39 -43 39 -48z"/>
<path d="M275 420 c-4 -6 8 -16 27 -24 39 -17 73 -51 87 -88 12 -32 31 -37 31
-9 0 55 -122 158 -145 121z"/>
</g>
</svg>
