<?xml version="1.0" standalone="no"?>
<!DOCTYPE svg PUBLIC "-//W3C//DTD SVG 20010904//EN"
 "http://www.w3.org/TR/2001/REC-SVG-20010904/DTD/svg10.dtd">
<svg version="1.0" xmlns="http://www.w3.org/2000/svg"
 width="512.000000pt" height="512.000000pt" viewBox="0 0 512.000000 512.000000"
 preserveAspectRatio="xMidYMid meet">

<g transform="translate(0.000000,512.000000) scale(0.100000,-0.100000)"
fill="#000000" stroke="none">
<path d="M1055 4786 c-73 -33 -95 -83 -95 -211 l0 -93 -202 -4 c-191 -3 -206
-5 -253 -28 -64 -31 -124 -91 -155 -155 l-25 -50 0 -1845 0 -1845 23 -45 c35
-72 75 -114 144 -151 l63 -34 2005 0 2005 0 51 27 c76 40 107 70 145 140 l34
63 0 1845 0 1845 -34 63 c-37 69 -80 109 -151 144 -41 21 -63 23 -247 26
l-201 4 -4 108 c-2 91 -6 113 -24 136 -39 53 -71 69 -134 69 -63 0 -95 -16
-134 -69 -18 -23 -22 -45 -24 -137 l-4 -109 -318 0 -318 0 -4 109 c-3 118 -12
141 -72 185 -39 29 -133 29 -172 0 -60 -44 -69 -67 -72 -185 l-4 -109 -318 0
-318 0 -4 109 c-3 118 -12 141 -72 185 -39 29 -133 29 -172 0 -60 -44 -69 -67
-72 -185 l-4 -109 -318 0 -318 0 -4 109 c-3 118 -12 141 -70 184 -34 25 -113
32 -153 13z m-87 -670 c14 -52 66 -102 117 -112 85 -16 166 33 187 112 l12 44
316 0 316 0 12 -44 c40 -151 264 -151 304 0 l12 44 316 0 316 0 12 -44 c40
-151 264 -151 304 0 l12 44 316 0 316 0 12 -44 c40 -151 264 -151 304 0 l12
44 158 0 158 0 0 -320 0 -320 -1920 0 -1920 0 0 320 0 320 158 0 158 0 12 -44z
m3512 -2196 l0 -1280 -1920 0 -1920 0 0 1280 0 1280 1920 0 1920 0 0 -1280z"/>
<path d="M2371 2865 c-408 -92 -696 -395 -761 -797 l-13 -78 -39 36 c-66 59
-131 70 -197 33 -47 -27 -72 -61 -78 -109 -12 -87 -4 -101 175 -283 92 -93
187 -183 211 -198 51 -33 105 -38 155 -14 18 9 114 97 213 198 148 149 183
190 194 225 29 101 -49 202 -158 202 -41 0 -97 -29 -125 -63 -17 -22 -18 -22
-18 -1 0 36 31 127 68 199 25 48 61 95 116 150 128 127 267 185 446 185 179 0
318 -58 446 -185 256 -256 258 -641 4 -895 -195 -196 -469 -243 -729 -125 -89
40 -119 42 -177 16 -73 -33 -109 -119 -80 -195 22 -57 46 -78 136 -120 210
-97 457 -111 685 -39 306 97 534 331 632 650 24 80 27 103 27 258 1 149 -2
180 -22 250 -32 109 -95 248 -147 320 -50 70 -169 187 -238 234 -67 46 -198
105 -287 131 -98 29 -342 37 -439 15z"/>
</g>
</svg>
