<?xml version="1.0" standalone="no"?>
<!DOCTYPE svg PUBLIC "-//W3C//DTD SVG 20010904//EN"
 "http://www.w3.org/TR/2001/REC-SVG-20010904/DTD/svg10.dtd">
<svg version="1.0" xmlns="http://www.w3.org/2000/svg"
 width="512.000000pt" height="512.000000pt" viewBox="0 0 512.000000 512.000000"
 preserveAspectRatio="xMidYMid meet">

<g transform="translate(0.000000,512.000000) scale(0.100000,-0.100000)"
fill="#000000" stroke="none">
<path d="M1766 5110 c-416 -66 -754 -363 -870 -764 -37 -127 -51 -275 -36
-398 52 -452 353 -804 790 -926 86 -24 111 -27 270 -27 151 0 186 3 260 23
309 84 558 286 694 565 262 533 45 1166 -489 1428 -141 69 -267 99 -430 104
-71 2 -157 0 -189 -5z m302 -326 c275 -57 501 -270 573 -541 30 -111 30 -270
0 -378 -61 -219 -197 -383 -396 -480 -110 -53 -205 -75 -325 -75 -380 0 -694
280 -740 659 -28 225 46 437 210 602 188 190 427 265 678 213z"/>
<path d="M3510 2756 c-607 -108 -1065 -580 -1151 -1185 -15 -106 -7 -361 15
-461 58 -265 179 -492 367 -685 201 -207 431 -334 717 -397 145 -32 407 -32
551 0 285 64 502 182 702 381 199 200 317 417 381 702 32 144 32 406 0 551
-43 198 -124 381 -239 539 -71 99 -244 268 -341 332 -148 99 -321 173 -497
212 -97 22 -405 29 -505 11z m413 -321 c373 -65 690 -336 816 -699 117 -333
57 -709 -157 -992 -337 -446 -966 -555 -1434 -247 -241 158 -414 421 -463 700
-101 578 274 1123 851 1237 93 19 283 19 387 1z"/>
<path d="M3650 2108 c-19 -13 -45 -43 -57 -68 -22 -43 -23 -52 -23 -360 0
-286 2 -319 19 -355 12 -25 96 -117 227 -247 177 -175 215 -208 252 -218 116
-30 222 77 191 195 -9 33 -44 73 -190 220 l-179 181 0 278 c0 307 -3 326 -63
368 -47 34 -132 36 -177 6z"/>
<path d="M837 2544 c-208 -37 -384 -130 -537 -284 -157 -157 -248 -331 -285
-548 -13 -73 -15 -169 -13 -530 3 -427 4 -441 24 -468 11 -15 33 -37 48 -48
27 -21 33 -21 1015 -21 l988 0 35 27 c94 71 82 214 -22 269 -33 18 -77 19
-903 19 l-868 0 3 358 c4 357 4 357 31 437 37 112 90 198 172 280 82 81 168
135 280 173 l80 27 701 5 701 5 35 27 c72 55 88 152 35 222 -53 69 -21 66
-769 65 -531 -1 -689 -4 -751 -15z"/>
</g>
</svg>
